<?xml version="1.0" encoding="UTF-8" standalone="no"?>
<!-- Generator: Adobe Illustrator 15.1.0, SVG Export Plug-In . SVG Version: 6.00 Build 0)  -->

<svg
   xmlns:dc="http://purl.org/dc/elements/1.1/"
   xmlns:cc="http://creativecommons.org/ns#"
   xmlns:rdf="http://www.w3.org/1999/02/22-rdf-syntax-ns#"
   xmlns:svg="http://www.w3.org/2000/svg"
   xmlns="http://www.w3.org/2000/svg"
   xmlns:sodipodi="http://sodipodi.sourceforge.net/DTD/sodipodi-0.dtd"
   xmlns:inkscape="http://www.inkscape.org/namespaces/inkscape"
   version="1.1"
   id="Layer_1"
   x="0px"
   y="0px"
   width="70"
   height="70"
   viewBox="0 0 70 70"
   enable-background="new 0 0 100 100"
   xml:space="preserve"
   inkscape:version="0.48.5 r10040"
   sodipodi:docname="cloud_rain_alt.svg"><metadata
   id="metadata3403"><rdf:RDF><cc:Work
       rdf:about=""><dc:format>image/svg+xml</dc:format><dc:type
         rdf:resource="http://purl.org/dc/dcmitype/StillImage" /></cc:Work></rdf:RDF></metadata><defs
   id="defs3401" /><sodipodi:namedview
   pagecolor="#ffffff"
   bordercolor="#666666"
   borderopacity="1"
   objecttolerance="10"
   gridtolerance="10"
   guidetolerance="10"
   inkscape:pageopacity="0"
   inkscape:pageshadow="2"
   inkscape:window-width="1600"
   inkscape:window-height="1138"
   id="namedview3399"
   showgrid="false"
   inkscape:zoom="2.36"
   inkscape:cx="-51.271186"
   inkscape:cy="50"
   inkscape:window-x="1594"
   inkscape:window-y="-6"
   inkscape:window-maximized="1"
   inkscape:current-layer="Layer_1" />
<path
   clip-rule="evenodd"
   d="m 45,48.498625 c -0.266,0 -0.614,0 -1,0 0,-1.372 -0.319,-2.742 -0.943,-4 0.777,0 1.451,0 1.943,0 4.418,0 7.999,-3.58 7.999,-7.998 0,-4.418 -3.581,-7.999 -7.999,-7.999 -1.6,0 -3.083,0.481 -4.334,1.29 -1.231,-5.316 -5.973,-9.289 -11.664,-9.289 -6.627,0 -11.998,5.372 -11.998,11.998 0,5.953 4.339,10.879 10.023,11.822 -0.637,1.217 -0.969,2.549 -1.012,3.887 -7.406,-1.399 -13.012,-7.895 -13.012,-15.709 0,-8.835 7.162,-15.998 15.998,-15.998 6.004,0 11.229,3.312 13.965,8.204 0.664,-0.114 1.337,-0.205 2.033,-0.205 6.627,0 11.998,5.372 11.998,11.999 0,6.627 -5.37,11.998 -11.997,11.998 z m -9.998,-7.071 3.535,3.535 c 1.951,1.953 1.951,5.118 0,7.07 -1.953,1.953 -5.119,1.953 -7.07,0 -1.953,-1.952 -1.953,-5.117 0,-7.07 l 3.535,-3.535 z"
   id="path3397"
   inkscape:connector-curvature="0"
   style="fill-rule:evenodd" />
</svg>