<?xml version="1.0" encoding="UTF-8" standalone="no"?>
<!-- Generator: Adobe Illustrator 15.1.0, SVG Export Plug-In . SVG Version: 6.00 Build 0)  -->

<svg
   xmlns:dc="http://purl.org/dc/elements/1.1/"
   xmlns:cc="http://creativecommons.org/ns#"
   xmlns:rdf="http://www.w3.org/1999/02/22-rdf-syntax-ns#"
   xmlns:svg="http://www.w3.org/2000/svg"
   xmlns="http://www.w3.org/2000/svg"
   xmlns:sodipodi="http://sodipodi.sourceforge.net/DTD/sodipodi-0.dtd"
   xmlns:inkscape="http://www.inkscape.org/namespaces/inkscape"
   version="1.1"
   id="Layer_1"
   x="0px"
   y="0px"
   width="70"
   height="70"
   viewBox="0 0 70 70"
   enable-background="new 0 0 100 100"
   xml:space="preserve"
   inkscape:version="0.48.5 r10040"
   sodipodi:docname="cloud_lightning_moon.svg"><metadata
   id="metadata3331"><rdf:RDF><cc:Work
       rdf:about=""><dc:format>image/svg+xml</dc:format><dc:type
         rdf:resource="http://purl.org/dc/dcmitype/StillImage" /></cc:Work></rdf:RDF></metadata><defs
   id="defs3329" /><sodipodi:namedview
   pagecolor="#ffffff"
   bordercolor="#666666"
   borderopacity="1"
   objecttolerance="10"
   gridtolerance="10"
   guidetolerance="10"
   inkscape:pageopacity="0"
   inkscape:pageshadow="2"
   inkscape:window-width="1600"
   inkscape:window-height="1138"
   id="namedview3327"
   showgrid="false"
   inkscape:zoom="2.36"
   inkscape:cx="-51.271186"
   inkscape:cy="50"
   inkscape:window-x="1594"
   inkscape:window-y="-6"
   inkscape:window-maximized="1"
   inkscape:current-layer="Layer_1" />
<path
   clip-rule="evenodd"
   d="m 54.3195,29.6165 0,0 c 1.004,1.431 1.699,3.09 2.003,4.883 h -0.004 c 0.109,0.652 0.18,1.317 0.18,2 0,6.627 -5.372,11.999 -11.999,11.999 -0.279,0 -0.648,0 -1.062,0 l 3.584,-4.412 c 3.181,-1.057 5.478,-4.051 5.478,-7.587 0,-0.691 -0.098,-1.359 -0.263,-2 l 0,0 c -0.89,-3.447 -4.011,-5.999 -7.737,-5.999 -1.6,0 -3.082,0.481 -4.333,1.291 -1.231,-5.316 -5.974,-9.29 -11.665,-9.29 -6.626,0 -11.998,5.372 -11.998,11.999 0,0.683 0.07,1.348 0.18,1.999 h -0.014 c 0.764,4.548 4.088,8.223 8.438,9.505 l -1.35,3.778 c -5.903,-1.831 -10.331,-6.991 -11.116,-13.283 l 0,0 c -0.082,-0.656 -0.139,-1.32 -0.139,-1.999 0,-8.836 7.163,-15.998 15.998,-15.998 2.003,0 3.914,0.375 5.68,1.048 l 0,0 c 1.635,-4.683 6.079,-8.047 11.318,-8.047 0.756,0 1.492,0.078 2.208,0.211 -0.132,0.576 -0.208,1.173 -0.208,1.788 0,4.418 3.582,7.999 7.999,7.999 0.616,0 1.212,-0.076 1.788,-0.207 0.134,0.716 0.212,1.452 0.212,2.207 10e-4,3.133 -1.211,5.978 -3.178,8.115 z m -10.607,-15.906 c -2.9,0.663 -5.175,2.909 -5.924,5.774 l 0,0 c 1.916,1.372 3.521,3.153 4.678,5.222 0.664,-0.114 1.338,-0.205 2.033,-0.205 2.619,0 5.033,0.848 7.006,2.271 l 0,0 c 0.858,-0.979 1.485,-2.168 1.785,-3.482 -4.853,-0.906 -8.675,-4.726 -9.578,-9.58 z m -11.211,20.789 h 9.999 l -5.999,9.999 h 6.999 l -12.999,15.998 3.6,-11.998 h -6.599 l 4.999,-13.999 z"
   id="path3325"
   inkscape:connector-curvature="0"
   style="fill-rule:evenodd" />
</svg>