<?xml version="1.0" encoding="UTF-8" standalone="no"?>
<!-- Generator: Adobe Illustrator 15.1.0, SVG Export Plug-In . SVG Version: 6.00 Build 0)  -->

<svg
   xmlns:dc="http://purl.org/dc/elements/1.1/"
   xmlns:cc="http://creativecommons.org/ns#"
   xmlns:rdf="http://www.w3.org/1999/02/22-rdf-syntax-ns#"
   xmlns:svg="http://www.w3.org/2000/svg"
   xmlns="http://www.w3.org/2000/svg"
   xmlns:sodipodi="http://sodipodi.sourceforge.net/DTD/sodipodi-0.dtd"
   xmlns:inkscape="http://www.inkscape.org/namespaces/inkscape"
   version="1.1"
   id="Layer_1"
   x="0px"
   y="0px"
   width="70"
   height="70"
   viewBox="0 0 70 70"
   enable-background="new 0 0 100 100"
   xml:space="preserve"
   inkscape:version="0.48.5 r10040"
   sodipodi:docname="cloud_moon_decreasing.svg"><metadata
   id="metadata3367"><rdf:RDF><cc:Work
       rdf:about=""><dc:format>image/svg+xml</dc:format><dc:type
         rdf:resource="http://purl.org/dc/dcmitype/StillImage" /><dc:title /></cc:Work></rdf:RDF></metadata><defs
   id="defs3365" /><sodipodi:namedview
   pagecolor="#ffffff"
   bordercolor="#666666"
   borderopacity="1"
   objecttolerance="10"
   gridtolerance="10"
   guidetolerance="10"
   inkscape:pageopacity="0"
   inkscape:pageshadow="2"
   inkscape:window-width="1600"
   inkscape:window-height="1138"
   id="namedview3363"
   showgrid="false"
   inkscape:zoom="6.675088"
   inkscape:cx="-10.277494"
   inkscape:cy="33.656603"
   inkscape:window-x="1592"
   inkscape:window-y="-8"
   inkscape:window-maximized="1"
   inkscape:current-layer="Layer_1" />
<path
   clip-rule="evenodd"
   d="m 54.318,35.617 0,0 c 1.368,1.949 2.179,4.318 2.179,6.883 0,6.625 -5.371,11.998 -11.998,11.998 -2.775,0 -12.801,0 -15.998,0 -8.836,0 -15.998,-7.162 -15.998,-15.998 0,-8.836 7.162,-15.998 15.998,-15.998 2.002,0 3.914,0.375 5.68,1.047 l 0,0 c 1.635,-4.682 6.078,-8.047 11.318,-8.047 0.755,0 1.491,0.078 2.207,0.212 -0.131,0.575 -0.207,1.173 -0.207,1.788 0,4.418 3.581,7.999 7.998,7.999 0.616,0 1.213,-0.076 1.789,-0.208 0.133,0.717 0.211,1.453 0.211,2.208 -10e-4,3.133 -1.212,5.979 -3.179,8.116 z M 16.502,38.5 c 0,6.627 5.371,11.998 11.998,11.998 3.616,0 12.979,0 15.998,0 4.418,0 7.999,-3.582 7.999,-7.998 0,-4.418 -3.581,-8 -7.999,-8 -1.6,0 -3.083,0.482 -4.334,1.291 -1.231,-5.316 -5.973,-9.29 -11.664,-9.29 -6.627,0 -11.998,5.372 -11.998,11.999 z M 36.051,24.404 c 10e-4,0 0.002,0 0.002,0 0,0 -10e-4,0 -0.002,0 z m 7.659,-4.695 c -2.9,0.664 -5.175,2.91 -5.925,5.775 l 0,0 c 1.918,1.372 3.523,3.152 4.68,5.22 0.664,-0.113 1.337,-0.205 2.033,-0.205 2.618,0 5.033,0.85 7.005,2.271 l 0,0 c 0.858,-0.979 1.485,-2.168 1.786,-3.482 -4.853,-0.904 -8.675,-4.723 -9.579,-9.579 z"
   id="path3361"
   inkscape:connector-curvature="0"
   style="fill-rule:evenodd" />
<path
   style="fill:#000000;fill-opacity:1;fill-rule:evenodd"
   d="m 28.587474,31.657608 c 0.296096,0.07181 0.565146,0.272837 0.803848,0.511539 0.636545,0.636545 0.853048,1.44888 -0.328847,2.630774 l -1.534618,1.736428 5.590396,0 c 2.367137,0 2.923082,0.826386 2.923082,2.100119 0,1.273739 -0.558182,2.028183 -2.923082,2.049666 l -5.553858,0 1.49808,1.750341 c 1.086841,1.269854 0.965392,1.957692 0.328847,2.594236 -0.636541,0.63654 -1.447811,0.890656 -2.630774,-0.292308 L 22.595155,40.57301 c -0.04792,-0.02731 -0.06619,-0.07986 -0.109616,-0.109616 -0.396824,-0.271877 -0.628932,-0.63099 -0.730771,-1.059617 -0.0364,-0.101829 -0.02434,-0.197623 -0.03654,-0.292308 -0.0125,-0.09707 -0.04658,-0.201996 -0.03654,-0.292309 -0.0025,-0.05969 0,-0.121815 0,-0.182692 0,-0.07305 -0.0036,-0.147915 0,-0.219232 -0.02528,-0.201262 0.0138,-0.420466 0.109616,-0.657693 0.01892,-0.06142 0.04868,-0.124127 0.07308,-0.182693 0.03374,-0.06359 0.06597,-0.15277 0.109616,-0.219231 0.04021,-0.0689 0.09548,-0.119367 0.146154,-0.182693 0.03349,-0.04331 0.07188,-0.10163 0.109615,-0.146154 0.01158,-0.01146 0.02446,-0.02533 0.03654,-0.03654 0.07192,-0.08284 0.132043,-0.168582 0.219231,-0.25577 l 4.275008,-4.275007 c 0.739351,-0.739353 1.333432,-0.923532 1.826926,-0.803847 z"
   id="path3960-8"
   inkscape:connector-curvature="0"
   sodipodi:nodetypes="ssscssscssscccccscccccccsss" /></svg>