<?xml version="1.0" encoding="UTF-8" standalone="no"?>
<!-- Generator: Adobe Illustrator 15.1.0, SVG Export Plug-In . SVG Version: 6.00 Build 0)  -->

<svg
   xmlns:dc="http://purl.org/dc/elements/1.1/"
   xmlns:cc="http://creativecommons.org/ns#"
   xmlns:rdf="http://www.w3.org/1999/02/22-rdf-syntax-ns#"
   xmlns:svg="http://www.w3.org/2000/svg"
   xmlns="http://www.w3.org/2000/svg"
   xmlns:sodipodi="http://sodipodi.sourceforge.net/DTD/sodipodi-0.dtd"
   xmlns:inkscape="http://www.inkscape.org/namespaces/inkscape"
   version="1.1"
   id="Layer_1"
   x="0px"
   y="0px"
   width="60"
   height="60"
   viewBox="0 0 60 60"
   enable-background="new 0 0 100 100"
   xml:space="preserve"
   inkscape:version="0.48.5 r10040"
   sodipodi:docname="cloud_hail.svg"><metadata
   id="metadata3223"><rdf:RDF><cc:Work
       rdf:about=""><dc:format>image/svg+xml</dc:format><dc:type
         rdf:resource="http://purl.org/dc/dcmitype/StillImage" /></cc:Work></rdf:RDF></metadata><defs
   id="defs3221" /><sodipodi:namedview
   pagecolor="#ffffff"
   bordercolor="#666666"
   borderopacity="1"
   objecttolerance="10"
   gridtolerance="10"
   guidetolerance="10"
   inkscape:pageopacity="0"
   inkscape:pageshadow="2"
   inkscape:window-width="640"
   inkscape:window-height="480"
   id="namedview3219"
   showgrid="false"
   inkscape:zoom="2.36"
   inkscape:cx="50"
   inkscape:cy="50"
   inkscape:window-x="594"
   inkscape:window-y="188"
   inkscape:window-maximized="0"
   inkscape:current-layer="Layer_1" />
<path
   clip-rule="evenodd"
   d="m 43.998,39.3 v -4.381 c 2.389,-1.383 3.999,-3.961 3.999,-6.92 0,-4.417 -3.581,-7.999 -7.998,-7.999 -1.601,0 -3.084,0.48 -4.334,1.291 -1.231,-5.317 -5.974,-9.29 -11.665,-9.29 -6.626,0 -11.998,5.372 -11.998,11.998 0,3.55 1.55,6.728 3.999,8.925 V 37.84 C 11.225,35.072 8.003,29.918 8.003,23.999 8.003,15.164 15.165,8.002 24,8.002 c 6.004,0 11.229,3.311 13.966,8.203 C 38.629,16.092 39.302,16 39.999,16 c 6.626,0 11.998,5.372 11.998,11.999 0,5.223 -3.342,9.653 -7.999,11.301 z m -21.997,0.698 c -1.104,0 -1,-0.895 -1,-1.998 v -8 c 0,-1.104 -0.104,-2 1,-2 1.104,0 1,0.896 1,2 v 8 c 0,1.103 0.104,1.998 -1,1.998 z m 0,4 c 1.104,0 1.999,0.896 1.999,2 0,1.105 -0.895,2 -1.999,2 -1.104,0 -2,-0.895 -2,-2 0,-1.104 0.895,-2 2,-2 z m 7.999,0 c -1.104,0 -1,-0.895 -1,-2 V 34 c 0,-1.105 -0.104,-2 1,-2 1.104,0 1,0.895 1,2 v 7.998 c 0,1.105 0.104,2 -1,2 z m 0,4 c 1.104,0 1.999,0.895 1.999,2 0,1.104 -0.895,2 -1.999,2 -1.104,0 -2,-0.896 -2,-2 0,-1.106 0.895,-2 2,-2 z m 7.999,-8 c -1.104,0 -1,-0.895 -1,-1.998 v -8 c 0,-1.104 -0.104,-2 1,-2 1.104,0 1,0.896 1,2 v 8 c 0,1.103 0.104,1.998 -1,1.998 z m 0,4 c 1.104,0 2,0.896 2,2 0,1.105 -0.896,2 -2,2 -1.104,0 -2,-0.895 -2,-2 0,-1.104 0.896,-2 2,-2 z"
   id="path3217"
   inkscape:connector-curvature="0"
   style="fill-rule:evenodd" />
</svg>