<?xml version="1.0" encoding="UTF-8" standalone="no"?>
<!-- Generator: Adobe Illustrator 15.1.0, SVG Export Plug-In . SVG Version: 6.00 Build 0)  -->

<svg
   xmlns:dc="http://purl.org/dc/elements/1.1/"
   xmlns:cc="http://creativecommons.org/ns#"
   xmlns:rdf="http://www.w3.org/1999/02/22-rdf-syntax-ns#"
   xmlns:svg="http://www.w3.org/2000/svg"
   xmlns="http://www.w3.org/2000/svg"
   xmlns:sodipodi="http://sodipodi.sourceforge.net/DTD/sodipodi-0.dtd"
   xmlns:inkscape="http://www.inkscape.org/namespaces/inkscape"
   version="1.1"
   id="Layer_1"
   x="0px"
   y="0px"
   width="70"
   height="70"
   viewBox="0 0 70 70"
   enable-background="new 0 0 100 100"
   xml:space="preserve"
   inkscape:version="0.48.5 r10040"
   sodipodi:docname="Cloud-Drizzle-Sun.svg"><metadata
   id="metadata9898"><rdf:RDF><cc:Work
       rdf:about=""><dc:format>image/svg+xml</dc:format><dc:type
         rdf:resource="http://purl.org/dc/dcmitype/StillImage" /><dc:title></dc:title></cc:Work></rdf:RDF></metadata><defs
   id="defs9896" /><sodipodi:namedview
   pagecolor="#ffffff"
   bordercolor="#666666"
   borderopacity="1"
   objecttolerance="10"
   gridtolerance="10"
   guidetolerance="10"
   inkscape:pageopacity="0"
   inkscape:pageshadow="2"
   inkscape:window-width="1600"
   inkscape:window-height="1138"
   id="namedview9894"
   showgrid="false"
   inkscape:zoom="9.44"
   inkscape:cx="50.844351"
   inkscape:cy="41.389163"
   inkscape:window-x="1594"
   inkscape:window-y="-6"
   inkscape:window-maximized="1"
   inkscape:current-layer="Layer_1" />
<path
   id="path9923"
   d="m 38.001192,19.425285 c -2.213,0 -4.215,2.471013 -5.663,3.923012 2.341,1.436 4.286,3.452 5.63,5.853001 0.664,-0.113 1.336,-0.205 2.033,-0.205 2.125,0 4.118,0.559 5.85,1.527 l 0,0 c 0.096,-0.494 1.12277,-0.105135 1.12277,-0.628135 0,-4.417 -4.55477,-10.469878 -8.97277,-10.469878 z m 11.194,13.866012 0,0 c 1.749,2.085999 2.805,4.769999 2.805,7.704999 0,5.221001 -3.342,9.652 -7.999,11.301001 l 0,-4.381 c 2.389,-1.385 4,-3.961 4,-6.920001 0,-4.418 -3.582,-8 -7.999,-8 -1.601,0 -3.084,0.482 -4.334,1.291 -1.231,-5.316 -5.973,-9.289998 -11.664,-9.289998 -6.627,0 -11.999,5.372 -11.999,11.998998 0,3.549001 1.551,6.729 4,8.926001 l 0,4.914 c -4.777,-2.768 -7.999,-7.921999 -7.999,-13.840001 0,-8.836 7.162,-15.997998 15.998,-15.997998 1.572,0 3.089,0.232 4.523,0.654 2.195,-2.827 5.617,-3.380609 9.475,-3.380609 6.627,0 9.825744,2.750311 9.825744,9.376312 -10e-4,1.515 1.879256,4.309297 1.367256,5.643296 z"
   inkscape:connector-curvature="0"
   sodipodi:nodetypes="sccsccssccsccsscssccsscscc" /><path
   d="m 22.003192,40.996296 c 1.104,0 2,0.895001 2,2 v 3.998002 c 0,1.104998 -0.896,2 -2,2 -1.104,0 -2,-0.895002 -2,-2 v -3.998002 c 0,-1.106 0.896,-2 2,-2 z"
   id="path9917"
   inkscape:connector-curvature="0" /><path
   d="m 22.003192,52.994298 c 1.104,0 2,0.894998 2,2 v 3.997999 c 0,1.105 -0.896,2 -2,2 -1.104,0 -2,-0.895 -2,-2 v -3.997999 c 0,-1.106001 0.896,-2 2,-2 z"
   id="path9915"
   inkscape:connector-curvature="0" /><path
   d="m 30.002192,44.994298 c 1.104,0 2,0.896 2,2 v 4 c 0,1.103999 -0.896,2 -2,2 -1.104,0 -2,-0.896001 -2,-2 v -4 c 0,-1.104 0.896,-2 2,-2 z"
   id="path9913"
   inkscape:connector-curvature="0" /><path
   d="m 30.002192,56.994298 c 1.104,0 2,0.894998 2,1.997999 v 4 c 0,1.105 -0.896,2.000001 -2,2.000001 -1.104,0 -2,-0.895001 -2,-2.000001 v -4 c 0,-1.104 0.896,-1.997999 2,-1.997999 z"
   id="path9911"
   inkscape:connector-curvature="0" /><path
   d="m 38.001192,40.996296 c 1.104,0 2,0.895001 2,2 v 3.998002 c 0,1.104998 -0.896,2 -2,2 -1.104,0 -2,-0.895002 -2,-2 v -3.998002 c 0,-1.106 0.896,-2 2,-2 z"
   id="path9909"
   inkscape:connector-curvature="0" /><path
   d="m 38.001192,52.994298 c 1.104,0 2,0.894998 2,2 v 3.997999 c 0,1.105 -0.896,2 -2,2 -1.104,0 -2,-0.895 -2,-2 v -3.997999 c 0,-1.106001 0.896,-2 2,-2 z"
   id="path9892"
   inkscape:connector-curvature="0" />
<path
   id="path8919"
   d="m 23.855809,17.691701 -2.827,-2.826999 c -0.781,-0.781001 -0.781,-2.048001 0,-2.828001 0.78,-0.781 2.047,-0.781 2.827,0 l 2.828,2.828001 c 0.781,0.779999 0.781,2.047 0,2.826999 -0.78,0.781 -2.047,0.781 -2.828,0 z m 14.139999,-4.686 c -1.104,0 -1.999,-0.895 -1.999,-1.998999 l 0,-3.9989995 c 0,-1.105 0.896,-2 1.999,-2 1.105,0 2,0.895 2,2 l 0,3.9989995 c 0,1.105001 -0.894,1.998999 -2,1.998999 z m -9.470343,8.665594 c 0.987259,0.260238 3.307226,1.396384 3.808594,1.691406 1.447,-1.451 3.444249,-2.34375 5.656249,-2.34375 4.418,0 8,3.584001 8,8 0,0.523001 -0.0602,1.006 -0.15625,1.5 1.27561,0.726382 2.37523,1.736396 3.33594,2.78125 0.50532,-1.326166 0.81932,-2.776924 0.82031,-4.28125 0,-6.625 -5.373,-12 -12,-12 -3.841196,0 -7.268828,1.845103 -9.464843,4.652344 z m 23.611343,-3.979594 c -0.781,0.781 -2.047,0.781 -2.828,0 -0.781,-0.78 -0.781,-2.047 0,-2.826999 l 2.828,-2.828001 c 0.781,-0.781 2.047,-0.781 2.828,0 0.781,0.78 0.781,2.047001 0,2.828001 z m 7.857,13.311999 -4,0 c -1.104,0 -2,-0.895 -2,-2 0,-1.103999 0.896,-1.998 2,-1.998 l 4,0 c 1.104,0 2,0.895001 2,1.998 0,1.105 -0.896,2 -2,2 z"
   style="fill:#ff8800;fill-opacity:1"
   inkscape:connector-curvature="0"
   sodipodi:nodetypes="ssccccssssssssccsscccsccccscccsssssss" /></svg>