<?xml version="1.0" encoding="UTF-8" standalone="no"?>
<!-- Generator: Adobe Illustrator 15.1.0, SVG Export Plug-In . SVG Version: 6.00 Build 0)  -->

<svg
   xmlns:dc="http://purl.org/dc/elements/1.1/"
   xmlns:cc="http://creativecommons.org/ns#"
   xmlns:rdf="http://www.w3.org/1999/02/22-rdf-syntax-ns#"
   xmlns:svg="http://www.w3.org/2000/svg"
   xmlns="http://www.w3.org/2000/svg"
   xmlns:sodipodi="http://sodipodi.sourceforge.net/DTD/sodipodi-0.dtd"
   xmlns:inkscape="http://www.inkscape.org/namespaces/inkscape"
   version="1.1"
   id="Layer_1"
   x="0px"
   y="0px"
   width="70"
   height="70"
   viewBox="0 0 70 70"
   enable-background="new 0 0 100 100"
   xml:space="preserve"
   inkscape:version="0.48.5 r10040"
   sodipodi:docname="cloud_snow_sun_alt.svg"><metadata
   id="metadata3602"><rdf:RDF><cc:Work
       rdf:about=""><dc:format>image/svg+xml</dc:format><dc:type
         rdf:resource="http://purl.org/dc/dcmitype/StillImage" /></cc:Work></rdf:RDF></metadata><defs
   id="defs3600" /><sodipodi:namedview
   pagecolor="#ffffff"
   bordercolor="#666666"
   borderopacity="1"
   objecttolerance="10"
   gridtolerance="10"
   guidetolerance="10"
   inkscape:pageopacity="0"
   inkscape:pageshadow="2"
   inkscape:window-width="1600"
   inkscape:window-height="1138"
   id="namedview3598"
   showgrid="false"
   inkscape:zoom="9.44"
   inkscape:cx="31.547335"
   inkscape:cy="39.117634"
   inkscape:window-x="1594"
   inkscape:window-y="-6"
   inkscape:window-maximized="1"
   inkscape:current-layer="Layer_1" />
<path
   id="path3596"
   style="fill-rule:evenodd"
   d="m 30.002687,55.996313 c 1.104,0 1.999,-0.896 1.999,-2 0,-1.105 -0.895,-2 -1.999,-2 -1.104,0 -2,0.895 -2,2 0,1.103 0.895,2 2,2 z m -6.928,-6 c 0.553,-0.957 1.775,-1.283 2.731,-0.732 l 2.196,1.268 0,-2.535 c 0,-1.104 0.896,-2 2,-2 1.104,0 1.999,0.896 1.999,2 l 0,2.535 2.196,-1.268 c 0.956,-0.551 2.18,-0.225 2.731,0.732 0.553,0.957 0.225,2.18 -0.731,2.732 l -2.195,1.268 2.196,1.268 c 0.956,0.553 1.284,1.775 0.731,2.732 -0.552,0.955 -1.775,1.283 -2.731,0.73 l -2.196,-1.267 0,2.535 c 0,1.105 -0.895,2 -1.999,2 -1.104,0 -2,-0.895 -2,-2 l 0,-2.535 -2.196,1.268 c -0.956,0.553 -2.179,0.225 -2.731,-0.73 -0.552,-0.957 -0.225,-2.18 0.732,-2.732 l 2.195,-1.268 -2.195,-1.268 c -0.957,-0.554 -1.285,-1.776 -0.733,-2.733 z M 38.60093,21.639794 c -2.213,0 -7.398479,2.396107 -6.262243,4.710519 2.341,1.435 4.286,3.453 5.63,5.853 0.663,-0.113 1.336,-0.205 2.033,-0.205 2.125,0 4.118,0.559 5.85,1.527 l 0,0 c 2.155898,1.004108 1.984182,-3.213709 1.984182,-3.736709 0,-4.419 -4.817939,-8.14881 -9.234939,-8.14881 z m 10.592757,14.652519 0,0 c 1.749,2.084 2.806,4.77 2.806,7.704 0,5.945 -4.326,10.865 -9.999,11.82 l 0,-4.082 c 3.448,-0.891 5.999,-4.012 5.999,-7.738 0,-4.417 -3.581,-7.999 -7.998,-7.999 -1.601,0 -3.084,0.48 -4.334,1.291 -1.231,-5.316 -5.974,-9.291 -11.665,-9.291 -6.626,0 -11.998,5.373 -11.998,12 0,4.438 2.416,8.305 5.999,10.379 l 0,4.445 c -5.86,-2.375 -9.998,-8.113 -9.998,-14.825 0,-8.836 7.162,-15.999 15.997,-15.999 1.573,0 3.09,0.232 4.524,0.655 3.655655,0.542742 5.617,-3.642777 9.475,-3.642777 6.626,0 11.136588,4.097608 11.136588,10.724608 0,1.517 -1.753655,1.761514 0.05541,4.558169 z"
   inkscape:connector-curvature="0"
   sodipodi:nodetypes="ssssscccssscccccccccssscccccccsccsccssccsccsscssccsscssc" />
<path
   id="path8919"
   d="m 23.856313,20.689686 -2.827,-2.827 c -0.781,-0.781 -0.781,-2.048 0,-2.828001 0.78,-0.781 2.047,-0.781 2.827,0 l 2.828,2.828001 c 0.781,0.78 0.781,2.047 0,2.827 -0.78,0.781 -2.047,0.781 -2.828,0 z m 14.14,-4.686 c -1.104,0 -1.999,-0.895 -1.999,-1.999001 l 0,-3.998998 c 0,-1.105 0.896,-2 1.999,-2 1.105,0 2,0.895 2,2 l 0,3.998998 c 0,1.105001 -0.894,1.999001 -2,1.999001 z m -9.470344,8.665594 c 0.987259,0.260238 3.307226,1.396384 3.808594,1.691406 1.447,-1.451 3.44425,-2.34375 5.65625,-2.34375 4.418,0 8,3.584 8,8 0,0.523 -0.06025,1.006 -0.15625,1.5 1.275604,0.726382 2.375224,1.736396 3.335937,2.78125 0.505325,-1.326166 0.81932,-2.776924 0.820313,-4.28125 0,-6.625 -5.373,-12 -12,-12 -3.841197,0 -7.268829,1.845102 -9.464844,4.652344 z m 23.611344,-3.979594 c -0.781,0.781 -2.047,0.781 -2.828,0 -0.781,-0.78 -0.781,-2.047 0,-2.827 l 2.828,-2.828001 c 0.781,-0.781 2.047,-0.781 2.828,0 0.781,0.780001 0.781,2.047001 0,2.828001 z m 7.857,13.312 -4,0 c -1.104,0 -2,-0.895 -2,-2 0,-1.104 0.896,-1.998 2,-1.998 l 4,0 c 1.104,0 2,0.895 2,1.998 0,1.105 -0.896,2 -2,2 z"
   style="fill:#ff8800;fill-opacity:1"
   inkscape:connector-curvature="0"
   sodipodi:nodetypes="ssccccssssssssccsscccsccccscccsssssss" /></svg>