<?xml version="1.0" encoding="UTF-8" standalone="no"?>
<!-- Generator: Adobe Illustrator 15.1.0, SVG Export Plug-In . SVG Version: 6.00 Build 0)  -->

<svg
   xmlns:dc="http://purl.org/dc/elements/1.1/"
   xmlns:cc="http://creativecommons.org/ns#"
   xmlns:rdf="http://www.w3.org/1999/02/22-rdf-syntax-ns#"
   xmlns:svg="http://www.w3.org/2000/svg"
   xmlns="http://www.w3.org/2000/svg"
   xmlns:sodipodi="http://sodipodi.sourceforge.net/DTD/sodipodi-0.dtd"
   xmlns:inkscape="http://www.inkscape.org/namespaces/inkscape"
   version="1.1"
   id="Layer_1"
   x="0px"
   y="0px"
   width="70"
   height="70"
   viewBox="0 0 70 70"
   enable-background="new 0 0 100 100"
   xml:space="preserve"
   inkscape:version="0.48.5 r10040"
   sodipodi:docname="cloud_snow_sun.svg"><metadata
   id="metadata3584"><rdf:RDF><cc:Work
       rdf:about=""><dc:format>image/svg+xml</dc:format><dc:type
         rdf:resource="http://purl.org/dc/dcmitype/StillImage" /></cc:Work></rdf:RDF></metadata><defs
   id="defs3582" /><sodipodi:namedview
   pagecolor="#ffffff"
   bordercolor="#666666"
   borderopacity="1"
   objecttolerance="10"
   gridtolerance="10"
   guidetolerance="10"
   inkscape:pageopacity="0"
   inkscape:pageshadow="2"
   inkscape:window-width="1600"
   inkscape:window-height="1138"
   id="namedview3580"
   showgrid="false"
   inkscape:zoom="8.4931994"
   inkscape:cx="43.351181"
   inkscape:cy="12.851131"
   inkscape:window-x="1594"
   inkscape:window-y="-6"
   inkscape:window-maximized="1"
   inkscape:current-layer="Layer_1" />
<path
   id="path3578"
   style="fill-rule:evenodd"
   d="m 37.995658,54.994985 c 1.104,0 2,0.895 2,2 0,1.104 -0.896,1.998 -2,1.998 -1.104,0 -2,-0.895 -2,-1.998 0,-1.106 0.897,-2 2,-2 z m 0,-8 c 1.104,0 2,0.896 2,2 0,1.105 -0.896,2 -2,2 -1.104,0 -2,-0.895 -2,-2 0,-1.104 0.897,-2 2,-2 z m -7.998,11.998 c 1.104,0 1.999,0.896 1.999,2 0,1.105 -0.896,2 -1.999,2 -1.105,0 -2,-0.895 -2,-2 0,-1.104 0.895,-2 2,-2 z m 0,-7.998 c 1.104,0 1.999,0.895 1.999,2 0,1.104 -0.896,2 -1.999,2 -1.105,0 -2,-0.896 -2,-2 0,-1.106 0.895,-2 2,-2 z m -8,4 c 1.104,0 2,0.895 2,2 0,1.104 -0.896,1.998 -2,1.998 -1.104,0 -2,-0.895 -2,-1.998 0,-1.106 0.896,-2 2,-2 z m 0,-8 c 1.104,0 2,0.896 2,2 0,1.105 -0.896,2 -2,2 -1.104,0 -2,-0.895 -2,-2 0,-1.104 0.896,-2 2,-2 z M 38.207522,20.455612 c -2.212,0 -7.472414,2.063254 -5.873864,4.893373 2.340001,1.435 4.285,3.453 5.629001,5.853 0.664,-0.113 1.337,-0.205 2.033,-0.205 2.125,0 4.117999,0.559 5.849999,1.527 l 0,0 c 1.843882,-0.176203 2.40106,-3.731754 2.40106,-4.254754 0,-4.418 -5.621195,-7.813619 -10.039195,-7.813619 z m 10.981137,14.835373 0,0 c 1.748999,2.084 2.804999,4.77 2.804999,7.704 0,5.223 -3.342,9.652 -7.997999,11.303 l 0,-4.381 c 2.388999,-1.385 3.998999,-3.963 3.998999,-6.922 0,-4.417 -3.581,-7.999 -7.998999,-7.999 -1.600001,0 -3.083,0.48 -4.334,1.291 -1.231001,-5.316 -5.973,-9.291 -11.664,-9.291 -6.627,0 -11.998,5.373 -11.998,12 0,3.549 1.55,6.729 3.999,8.924 l 0,4.916 c -4.776,-2.768 -7.9990005,-7.922 -7.9990005,-13.84 0,-8.836 7.1620005,-15.999 15.9980005,-15.999 1.572,0 3.09,0.232 4.523,0.655 3.995847,-0.07376 5.432618,-3.938958 9.289618,-3.938958 6.627001,0 10.939678,3.411255 10.939678,10.038255 0,1.516 -1.113974,1.767262 0.438704,5.539703 z"
   inkscape:connector-curvature="0"
   sodipodi:nodetypes="sssssssssssssssssssssssssssssssccsccssccsccsscssccsscssc" />
<path
   id="path8919"
   d="m 23.862341,19.691013 -2.827,-2.827 c -0.781,-0.781 -0.781,-2.047998 0,-2.827998 0.78,-0.781 2.047,-0.781 2.827,0 l 2.828,2.827998 c 0.781,0.78 0.781,2.047 0,2.827 -0.78,0.781 -2.047,0.781 -2.828,0 z m 14.14,-4.685998 c -1.104,0 -1.999,-0.895 -1.999,-1.999 l 0,-3.9989995 c 0,-1.105 0.896,-2 1.999,-2 1.105,0 2,0.895 2,2 l 0,3.9989995 c 0,1.105 -0.894,1.999 -2,1.999 z m -9.470344,8.665592 c 0.987259,0.260238 3.307226,1.396384 3.808594,1.691406 1.447,-1.451 3.44425,-2.34375 5.65625,-2.34375 4.418,0 8,3.584 8,8 0,0.523 -0.06025,1.006 -0.15625,1.5 1.275604,0.726382 2.375224,1.736396 3.335937,2.78125 0.505325,-1.326166 0.81932,-2.776924 0.820313,-4.28125 0,-6.625 -5.373,-12 -12,-12 -3.841197,0 -7.268829,1.845102 -9.464844,4.652344 z m 23.611344,-3.979594 c -0.781,0.781 -2.047,0.781 -2.828,0 -0.781,-0.78 -0.781,-2.047 0,-2.827 l 2.828,-2.827998 c 0.781,-0.781 2.047,-0.781 2.828,0 0.781,0.78 0.781,2.046998 0,2.827998 z m 7.857,13.312 -4,0 c -1.104,0 -2,-0.895 -2,-2 0,-1.104 0.896,-1.998 2,-1.998 l 4,0 c 1.104,0 2,0.895 2,1.998 0,1.105 -0.896,2 -2,2 z"
   style="fill:#ff8800;fill-opacity:1"
   inkscape:connector-curvature="0"
   sodipodi:nodetypes="ssccccssssssssccsscccsccccscccsssssss" /></svg>