<?xml version="1.0" encoding="UTF-8" standalone="no"?>
<!-- Generator: Adobe Illustrator 15.1.0, SVG Export Plug-In . SVG Version: 6.00 Build 0)  -->

<svg
   xmlns:dc="http://purl.org/dc/elements/1.1/"
   xmlns:cc="http://creativecommons.org/ns#"
   xmlns:rdf="http://www.w3.org/1999/02/22-rdf-syntax-ns#"
   xmlns:svg="http://www.w3.org/2000/svg"
   xmlns="http://www.w3.org/2000/svg"
   xmlns:sodipodi="http://sodipodi.sourceforge.net/DTD/sodipodi-0.dtd"
   xmlns:inkscape="http://www.inkscape.org/namespaces/inkscape"
   version="1.1"
   id="Layer_1"
   x="0px"
   y="0px"
   width="70"
   height="70"
   viewBox="0 0 70 70"
   enable-background="new 0 0 100 100"
   xml:space="preserve"
   inkscape:version="0.48.5 r10040"
   sodipodi:docname="cloud_rain_sun.svg"><metadata
   id="metadata3476"><rdf:RDF><cc:Work
       rdf:about=""><dc:format>image/svg+xml</dc:format><dc:type
         rdf:resource="http://purl.org/dc/dcmitype/StillImage" /></cc:Work></rdf:RDF></metadata><defs
   id="defs3474" /><sodipodi:namedview
   pagecolor="#ffffff"
   bordercolor="#666666"
   borderopacity="1"
   objecttolerance="10"
   gridtolerance="10"
   guidetolerance="10"
   inkscape:pageopacity="0"
   inkscape:pageshadow="2"
   inkscape:window-width="1600"
   inkscape:window-height="1138"
   id="namedview3472"
   showgrid="false"
   inkscape:zoom="9.44"
   inkscape:cx="47.740266"
   inkscape:cy="29.943048"
   inkscape:window-x="1594"
   inkscape:window-y="-6"
   inkscape:window-maximized="1"
   inkscape:current-layer="Layer_1" />
<path
   id="path3470"
   style="fill-rule:evenodd"
   d="m 37.9985,40.9985 c 1.105,0 2,0.896 2,2 l 0,15.998 c 0,1.105 -0.895,2 -2,2 -1.104,0 -2,-0.895 -2,-2 l 0,-15.998 c 0,-1.104 0.897,-2 2,-2 z m -7.998,4 c 1.104,0 2,0.895 2,2 l 0,15.998 c 0,1.104 -0.896,2 -2,2 -1.105,0 -2,-0.896 -2,-2 l 0,-15.998 c 0,-1.106 0.895,-2 2,-2 z m -8,-4 c 1.105,0 2,0.896 2,2 l 0,15.998 c 0,1.105 -0.895,2 -2,2 -1.104,0 -2,-0.895 -2,-2 l 0,-15.998 c 0,-1.104 0.897,-2 2,-2 z M 38.475195,18.088364 c -2.211,0 -7.604831,2.434017 -6.138695,5.263136 2.34,1.435 4.285,3.452 5.629,5.854 0.664,-0.113 1.338,-0.205 2.033,-0.205 2.125,0 4.119,0.559 5.85,1.527 l 0,0 c 3.009136,1.41278 2.427542,-2.381119 2.427542,-2.904119 0,-4.419 -5.382847,-9.535017 -9.800847,-9.535017 z M 49.1925,33.2945 l 0,0 c 1.75,2.084 2.805,4.77 2.805,7.704 0,5.223 -3.342,9.652 -7.998,11.301 l 0,-4.381 c 2.389,-1.383 4,-3.961 4,-6.92 0,-4.417 -3.582,-7.999 -8,-7.999 -1.6,0 -3.084,0.48 -4.334,1.291 -1.23,-5.317 -5.973,-9.29 -11.664,-9.29 -6.627,0 -11.998,5.372 -11.998,11.998 0,3.55 1.551,6.728 4,8.925 l 0,4.916 c -4.777,-2.768 -8,-7.922 -8,-13.841 0,-8.835 7.162,-15.997 15.998,-15.997 1.572,0 3.09,0.231 4.523,0.654 3.41322,0.245034 5.511068,-4.018407 9.369068,-4.018407 6.627,0 9.031898,3.358288 11.521305,10.038254 -10e-4,1.516 -1.457254,4.072289 -0.222373,5.619153 z"
   inkscape:connector-curvature="0"
   sodipodi:nodetypes="ssssssssssssssssssssssccsccssccsccsscssccsscscc" /><path
   id="path8919"
   d="m 23.897968,17.690292 -2.827,-2.826999 c -0.781,-0.781 -0.781,-2.048 0,-2.828 0.78,-0.781 2.047,-0.781 2.827,0 l 2.828,2.828 c 0.781,0.779999 0.781,2.046999 0,2.826999 -0.78,0.781 -2.047,0.781 -2.828,0 z m 14.14,-4.685999 c -1.104,0 -1.999,-0.895 -1.999,-1.999 l 0,-3.9990005 c 0,-1.105 0.896,-2 1.999,-2 1.105,0 2,0.895 2,2 l 0,3.9990005 c 0,1.105 -0.894,1.999 -2,1.999 z m -9.470344,8.665593 c 0.987259,0.260238 3.307226,1.396384 3.808594,1.691406 1.447,-1.451 3.44425,-2.34375 5.65625,-2.34375 4.418,0 8,3.584 8,8 0,0.523 -0.06025,1.006 -0.15625,1.5 1.275604,0.726382 2.375224,1.736396 3.335937,2.78125 0.505325,-1.326166 0.81932,-2.776924 0.820313,-4.28125 0,-6.625 -5.373,-12 -12,-12 -3.841197,0 -7.268829,1.845102 -9.464844,4.652344 z m 23.611344,-3.979594 c -0.781,0.781 -2.047,0.781 -2.828,0 -0.781,-0.78 -0.781,-2.047 0,-2.826999 l 2.828,-2.828 c 0.781,-0.781 2.047,-0.781 2.828,0 0.781,0.78 0.781,2.047 0,2.828 z m 7.857,13.312 -4,0 c -1.104,0 -2,-0.895 -2,-2 0,-1.104 0.896,-1.998 2,-1.998 l 4,0 c 1.104,0 2,0.895 2,1.998 0,1.105 -0.896,2 -2,2 z"
   style="fill:#ff8800;fill-opacity:1"
   inkscape:connector-curvature="0"
   sodipodi:nodetypes="ssccccssssssssccsscccsccccscccsssssss" />
</svg>