<?xml version="1.0" encoding="UTF-8" standalone="no"?>
<!-- Generator: Adobe Illustrator 15.1.0, SVG Export Plug-In . SVG Version: 6.00 Build 0)  -->

<svg
   xmlns:dc="http://purl.org/dc/elements/1.1/"
   xmlns:cc="http://creativecommons.org/ns#"
   xmlns:rdf="http://www.w3.org/1999/02/22-rdf-syntax-ns#"
   xmlns:svg="http://www.w3.org/2000/svg"
   xmlns="http://www.w3.org/2000/svg"
   xmlns:sodipodi="http://sodipodi.sourceforge.net/DTD/sodipodi-0.dtd"
   xmlns:inkscape="http://www.inkscape.org/namespaces/inkscape"
   version="1.1"
   id="Layer_1"
   x="0px"
   y="0px"
   width="70"
   height="70"
   viewBox="0 0 70 70"
   enable-background="new 0 0 100 100"
   xml:space="preserve"
   inkscape:version="0.48.5 r10040"
   sodipodi:docname="Cloud-Drizzle-Sun-Alt.svg"><metadata
   id="metadata10528"><rdf:RDF><cc:Work
       rdf:about=""><dc:format>image/svg+xml</dc:format><dc:type
         rdf:resource="http://purl.org/dc/dcmitype/StillImage" /><dc:title /></cc:Work></rdf:RDF></metadata><defs
   id="defs10526" /><sodipodi:namedview
   pagecolor="#ffffff"
   bordercolor="#666666"
   borderopacity="1"
   objecttolerance="10"
   gridtolerance="10"
   guidetolerance="10"
   inkscape:pageopacity="0"
   inkscape:pageshadow="2"
   inkscape:window-width="1600"
   inkscape:window-height="1138"
   id="namedview10524"
   showgrid="false"
   inkscape:zoom="6.675088"
   inkscape:cx="52.623465"
   inkscape:cy="49.44871"
   inkscape:window-x="1594"
   inkscape:window-y="-6"
   inkscape:window-maximized="1"
   inkscape:current-layer="Layer_1" />
<path
   id="path10522"
   d="m 36.966814,48.963104 2.121,2.121 c 1.172,1.172 1.172,3.07 0,4.242 -1.171,1.172 -3.07,1.172 -4.241,0 -1.172,-1.172 -1.172,-3.07 0,-4.242 z m -6.999,7.998 2.121,2.121 c 1.172,1.172 1.172,3.072 0,4.242 -1.171,1.172 -3.07,1.172 -4.242,0 -1.171,-1.17 -1.171,-3.07 0,-4.242 z m -6.999,-7.998 2.121,2.121 c 1.172,1.172 1.172,3.07 0,4.242 -1.171,1.172 -3.07,1.172 -4.242,0 -1.171,-1.172 -1.171,-3.07 0,-4.242 z M 37.817003,20.03328 c -2.212,0 -5.637202,1.422338 -5.512189,4.072824 2.34,1.436 4.286,3.453 5.629,5.853 0.664,-0.113 1.337,-0.205 2.033,-0.205 2.126,0 4.118,0.559 5.85,1.527 l 0,0 c 1.594108,-0.419095 2.063862,-4.223281 1.796918,-4.673026 -2.621688,-4.417 -5.378729,-6.574798 -9.796729,-6.574798 z m 11.343811,14.014824 0,0 c 1.749,2.086 2.806,4.77 2.806,7.706 l 0,0 c 0,5.227 -3.349,9.66 -8.014,11.305 -0.027,-1.336 -0.434,-2.66 -1.222,-3.807 3.054,-1.127 5.235,-4.055 5.235,-7.498 0,-4.418 -3.581,-8 -7.999,-8 -1.601,0 -3.083,0.482 -4.333,1.291 -1.232,-5.316 -5.974,-9.29 -11.665,-9.29 -6.626,0 -11.998,5.372 -11.998,11.999 0,1.404 0.254,2.746 0.697001,4 l 0.015,0 c 0.975,2.74 2.895,5.031 5.395,6.445 l -0.058,0.057 c -0.98,0.98 -1.596,2.184 -1.872,3.445 -3.751,-2.107 -6.5510002,-5.686 -7.6520001,-9.947 l 0,0 c -0.33,-1.281 -0.524,-2.617 -0.524,-4 0,-8.836 7.1630001,-15.998 15.9980001,-15.998 1.572,0 3.088999,0.232 4.522999,0.654 3.768013,-0.504933 5.767812,-3.155892 9.624812,-3.155892 6.626999,0 11.062149,4.18582 10.35108,10.574797 -1.51598,2.203628 -0.362303,1.65637 0.692108,4.219095 z"
   inkscape:connector-curvature="0"
   sodipodi:nodetypes="cscccccscccccsccccsccsccssccccccsscsscccccccsscscc" />
<path
   id="path8919"
   d="m 23.890186,18.480894 -2.827,-2.826998 c -0.781,-0.781001 -0.781,-2.048001 0,-2.828001 0.78,-0.781 2.047,-0.781 2.827,0 l 2.828,2.828001 c 0.781,0.779998 0.781,2.046999 0,2.826998 -0.78,0.781 -2.047,0.781 -2.828,0 z m 14.139999,-4.685999 c -1.104,0 -1.999,-0.895 -1.999,-1.998999 l 0,-3.999 c 0,-1.105 0.896,-2 1.999,-2 1.105,0 2,0.895 2,2 l 0,3.999 c 0,1.105001 -0.894,1.998999 -2,1.998999 z m -9.470343,8.665593 c 0.987259,0.260238 3.307226,1.396384 3.808594,1.691406 1.447,-1.451 3.444249,-2.34375 5.656249,-2.34375 4.418,0 8,3.584001 8,8 0,0.523001 -0.0602,1.006 -0.15625,1.5 1.27561,0.726382 2.37523,1.736396 3.33594,2.78125 0.50532,-1.326166 0.81932,-2.776924 0.82031,-4.28125 0,-6.625 -5.373,-12 -12,-12 -3.841196,0 -7.268828,1.845103 -9.464843,4.652344 z m 23.611343,-3.979594 c -0.781,0.781 -2.047,0.781 -2.828,0 -0.781,-0.78 -0.781,-2.047 0,-2.826998 l 2.828,-2.828001 c 0.781,-0.781 2.047,-0.781 2.828,0 0.781001,0.78 0.781001,2.047001 0,2.828001 z m 7.857,13.311999 -4,0 c -1.104,0 -2,-0.895 -2,-2 0,-1.103999 0.896,-1.998 2,-1.998 l 4,0 c 1.104,0 2,0.895001 2,1.998 0,1.105 -0.896,2 -2,2 z"
   style="fill:#ff8800;fill-opacity:1"
   inkscape:connector-curvature="0"
   sodipodi:nodetypes="ssccccssssssssccsscccsccccscccsssssss" /></svg>