<?xml version="1.0" encoding="UTF-8" standalone="no"?>
<!-- Generator: Adobe Illustrator 15.1.0, SVG Export Plug-In . SVG Version: 6.00 Build 0)  -->

<svg
   xmlns:dc="http://purl.org/dc/elements/1.1/"
   xmlns:cc="http://creativecommons.org/ns#"
   xmlns:rdf="http://www.w3.org/1999/02/22-rdf-syntax-ns#"
   xmlns:svg="http://www.w3.org/2000/svg"
   xmlns="http://www.w3.org/2000/svg"
   xmlns:sodipodi="http://sodipodi.sourceforge.net/DTD/sodipodi-0.dtd"
   xmlns:inkscape="http://www.inkscape.org/namespaces/inkscape"
   version="1.1"
   id="Layer_1"
   x="0px"
   y="0px"
   width="70"
   height="70"
   viewBox="0 0 70 70"
   enable-background="new 0 0 100 100"
   xml:space="preserve"
   inkscape:version="0.48.5 r10040"
   sodipodi:docname="cloud_rain_sun_alt.svg"><metadata
   id="metadata3494"><rdf:RDF><cc:Work
       rdf:about=""><dc:format>image/svg+xml</dc:format><dc:type
         rdf:resource="http://purl.org/dc/dcmitype/StillImage" /></cc:Work></rdf:RDF></metadata><defs
   id="defs3492" /><sodipodi:namedview
   pagecolor="#ffffff"
   bordercolor="#666666"
   borderopacity="1"
   objecttolerance="10"
   gridtolerance="10"
   guidetolerance="10"
   inkscape:pageopacity="0"
   inkscape:pageshadow="2"
   inkscape:window-width="1600"
   inkscape:window-height="1138"
   id="namedview3490"
   showgrid="false"
   inkscape:zoom="9.44"
   inkscape:cx="57.558526"
   inkscape:cy="29.06686"
   inkscape:window-x="1594"
   inkscape:window-y="-6"
   inkscape:window-maximized="1"
   inkscape:current-layer="Layer_1" />
<path
   id="path3488"
   style="fill-rule:evenodd"
   d="m 29.970173,49.41327 3.535,3.535 c 1.952,1.951 1.952,5.117 0,7.068 -1.952,1.953 -5.118,1.953 -7.07,0 -1.952,-1.951 -1.952,-5.117 0,-7.068 z m 8.634593,-26.991678 c -2.213,0 -6.916271,1.321729 -6.297593,4.415678 2.34,1.435 4.285,3.452 5.629,5.854 0.664,-0.113 1.336,-0.205 2.033,-0.205 2.125,0 4.118,0.559 5.85,1.527 l 0,0 c 2.532441,0.08863 2.903237,-2.487051 2.903237,-3.010051 0,-4.419 -5.699644,-8.581627 -10.117644,-8.581627 z m 10.557407,14.359678 0,0 c 1.748,2.084 2.805,4.77 2.805,7.703 l 0,0 c 0,6.627 -5.371,11.998 -11.998,11.998 -0.266,0 -0.614,0 -1,0 0,-1.371 -0.319,-2.742 -0.943,-3.998 0.777,0 1.451,0 1.943,0 4.418,0 7.999,-3.582 7.999,-8 0,-4.418 -3.581,-7.998 -7.999,-7.998 -1.601,0 -3.084,0.48 -4.334,1.291 -1.231,-5.318 -5.973,-9.291 -11.664,-9.291 -6.627,0 -11.998,5.372 -11.998,11.998 0,1.406 0.254,2.748 0.697,4 l -0.005,0 c 1.437,4.053 4.987,7.104 9.331,7.824 -0.637,1.215 -0.969,2.547 -1.012,3.887 -6.096,-1.152 -10.964,-5.76 -12.498,-11.711 l 0.011,0 c -0.33,-1.279 -0.524,-2.615 -0.524,-4 0,-8.834 7.162,-15.997 15.998,-15.997 1.572,0 3.089,0.231 4.523,0.654 3.678051,0.615797 5.617,-3.223915 9.475,-3.223915 6.627,0 11.415373,3.252356 11.415373,9.879356 0,1.516 -0.980559,2.218474 -0.222373,4.984559 z"
   inkscape:connector-curvature="0"
   sodipodi:nodetypes="ccccccsccsccssccccsccssscssccccccsscssc" />
<path
   id="path8919"
   d="m 23.888827,21.202979 -2.827,-2.826999 c -0.781,-0.781 -0.781,-2.048 0,-2.828 0.78,-0.781 2.047,-0.781 2.827,0 l 2.828,2.828 c 0.781,0.779999 0.781,2.046999 0,2.826999 -0.78,0.781 -2.047,0.781 -2.828,0 z m 14.14,-4.685999 c -1.104,0 -1.999,-0.895 -1.999,-1.999 l 0,-3.999 c 0,-1.105 0.896,-2 1.999,-2 1.105,0 2,0.895 2,2 l 0,3.999 c 0,1.105 -0.894,1.999 -2,1.999 z m -9.470344,8.665593 c 0.987259,0.260238 3.307226,1.396384 3.808594,1.691406 1.447,-1.451 3.44425,-2.34375 5.65625,-2.34375 4.418,0 8,3.584 8,8 0,0.523 -0.06025,1.006 -0.15625,1.5 1.275604,0.726382 2.375224,1.736396 3.335937,2.78125 0.505325,-1.326166 0.81932,-2.776924 0.820313,-4.28125 0,-6.625 -5.373,-12 -12,-12 -3.841197,0 -7.268829,1.845102 -9.464844,4.652344 z m 23.611344,-3.979594 c -0.781,0.781 -2.047,0.781 -2.828,0 -0.781,-0.78 -0.781,-2.047 0,-2.826999 l 2.828,-2.828 c 0.781,-0.781 2.047,-0.781 2.828,0 0.781,0.78 0.781,2.047 0,2.828 z m 7.857,13.312 -4,0 c -1.104,0 -2,-0.895 -2,-2 0,-1.104 0.896,-1.998 2,-1.998 l 4,0 c 1.104,0 2,0.895 2,1.998 0,1.105 -0.896,2 -2,2 z"
   style="fill:#ff8800;fill-opacity:1"
   inkscape:connector-curvature="0"
   sodipodi:nodetypes="ssccccssssssssccsscccsccccscccsssssss" /></svg>