<?xml version="1.0" encoding="UTF-8" standalone="no"?>
<!-- Generator: Adobe Illustrator 15.1.0, SVG Export Plug-In . SVG Version: 6.00 Build 0)  -->

<svg
   xmlns:dc="http://purl.org/dc/elements/1.1/"
   xmlns:cc="http://creativecommons.org/ns#"
   xmlns:rdf="http://www.w3.org/1999/02/22-rdf-syntax-ns#"
   xmlns:svg="http://www.w3.org/2000/svg"
   xmlns="http://www.w3.org/2000/svg"
   xmlns:sodipodi="http://sodipodi.sourceforge.net/DTD/sodipodi-0.dtd"
   xmlns:inkscape="http://www.inkscape.org/namespaces/inkscape"
   version="1.1"
   id="Layer_1"
   x="0px"
   y="0px"
   width="70"
   height="70"
   viewBox="0 0 70 70"
   enable-background="new 0 0 100 100"
   xml:space="preserve"
   inkscape:version="0.48.5 r10040"
   sodipodi:docname="cloud_wind_sun.svg"><metadata
   id="metadata3674"><rdf:RDF><cc:Work
       rdf:about=""><dc:format>image/svg+xml</dc:format><dc:type
         rdf:resource="http://purl.org/dc/dcmitype/StillImage" /></cc:Work></rdf:RDF></metadata><defs
   id="defs3672" /><sodipodi:namedview
   pagecolor="#ffffff"
   bordercolor="#666666"
   borderopacity="1"
   objecttolerance="10"
   gridtolerance="10"
   guidetolerance="10"
   inkscape:pageopacity="0"
   inkscape:pageshadow="2"
   inkscape:window-width="1600"
   inkscape:window-height="1138"
   id="namedview3670"
   showgrid="false"
   inkscape:zoom="9.44"
   inkscape:cx="58.617578"
   inkscape:cy="15.962329"
   inkscape:window-x="1594"
   inkscape:window-y="-6"
   inkscape:window-maximized="1"
   inkscape:current-layer="Layer_1" />

<path
   id="path3668"
   style="fill-rule:evenodd"
   d="m 50.9975,52.997 c 0,-1.104 0.896,-1.999 2,-1.999 l 2.999,0 c 1.104,0 2,-0.896 2,-2 0,-1.104 -0.896,-1.999 -2,-1.999 -1.104,0 -1.999,-0.896 -1.999,-2 0,-1.105 0.895,-2 1.999,-2 0.139,0 0.273,0.014 0.403,0.041 3.122,0.211 5.597,2.783 5.597,5.958 0,3.059 -2.291,5.577 -5.25,5.948 l 0,0.051 -0.75,0 -2.999,0 c -1.104,0 -2,-0.895 -2,-2 z M 36.276676,16.829744 c -2.213,0 -4.046463,2.115212 -3.940176,4.523256 2.341,1.435 4.286,3.451 5.63,5.854 0.663,-0.114 1.336,-0.205 2.033,-0.205 2.125,0 4.118,0.559 5.85,1.527 l 0,0 c 0.096,-0.494 2.695783,-1.379527 2.695783,-1.901527 0,-4.419 -7.851607,-9.797729 -12.268607,-9.797729 z M 49.1915,31.296 l 0,0 c 0.912,1.087 1.63,2.34 2.114,3.704 l -0.01,0 c 0.213,0.602 0.385,1.222 0.5,1.863 -1.394,-0.995 -3.049,-1.646 -4.848,-1.815 -0.01,-0.017 -0.022,-0.031 -0.032,-0.048 l 0.003,0 c -1.384,-2.389 -3.961,-3.999 -6.92,-3.999 -1.601,0 -3.084,0.48 -4.334,1.29 -1.231,-5.316 -5.974,-9.29 -11.665,-9.29 -6.626,0 -11.998,5.372 -11.998,11.999 l 0,0 c 0,6.626 5.372,11.999 11.998,11.999 2.599,0 8.153,0 12.2,0 l 9.798,0 c 1.104,0 1.999,-0.896 1.999,-2 0,-1.105 -0.895,-2 -1.999,-2 -1.104,0 -2,-0.896 -2,-2 0,-1.104 0.896,-2 2,-2 0.138,0 0.272,0.014 0.402,0.041 3.122,0.211 5.597,2.783 5.597,5.959 0,3.059 -2.291,5.577 -5.249,5.947 l 0,0.052 -0.75,0 -7.985,0 c -4.012,0 -11.358,0 -14.013,0 -1.104,0 -1.999,0.896 -1.999,1.999 0,1.105 0.896,2 1.999,2 l 21.998,0 0.75,0 0,0.053 c 2.958,0.369 5.249,2.889 5.249,5.947 0,3.175 -2.475,5.747 -5.597,5.958 -0.13,0.026 -0.265,0.041 -0.402,0.041 -1.104,0 -2,-0.896 -2,-2 0,-1.104 0.896,-1.999 2,-1.999 1.104,0 1.999,-0.896 1.999,-2 0,-1.105 -0.895,-2 -1.999,-2 l -21.997,0 -0.749,0 0,-0.052 c -2.959,-0.37 -5.25,-2.89 -5.25,-5.948 0,-1.055 0.294,-2.032 0.773,-2.89 C 12.5085,47.939 8.0035,42.003 8.0035,35 c 0,-8.835 7.162,-15.998 15.997,-15.998 1.573,0 3.09,0.232 4.524,0.655 2.195,-2.828 6.581756,-4.165495 10.373865,-3.455514 6.401283,1.198486 9.001784,3.123839 10.20027,9.376312 0.285206,1.487912 -0.742432,3.595696 0.09286,5.718202 z"
   inkscape:connector-curvature="0"
   sodipodi:nodetypes="ssssssscscccsssccsccssccccccccscsccssssssscscccsssscccscssssscccscsscssc" /><path
   id="path8919"
   d="m 23.835334,15.654551 -2.827,-2.826999 c -0.781,-0.781 -0.781,-2.048 0,-2.8279994 0.78,-0.7810001 2.047,-0.7810001 2.827,0 l 2.828,2.8279994 c 0.781,0.779999 0.781,2.046999 0,2.826999 -0.78,0.781 -2.047,0.781 -2.828,0 z m 14.14,-4.685999 c -1.104,0 -1.999,-0.895 -1.999,-1.9989995 l 0,-3.9989999 c 0,-1.105 0.896,-2 1.999,-2 1.105,0 2,0.895 2,2 l 0,3.9989999 c 0,1.1049995 -0.894,1.9989995 -2,1.9989995 z m -9.470344,8.665593 c 0.987259,0.260238 3.307226,1.396384 3.808594,1.691406 1.447,-1.451 3.44425,-2.34375 5.65625,-2.34375 4.418,0 8,3.584 8,8 0,0.523 -0.06025,1.006 -0.15625,1.5 1.275604,0.726382 2.375224,1.736396 3.335937,2.78125 0.505325,-1.326166 0.81932,-2.776924 0.820313,-4.28125 0,-6.625 -5.373,-12 -12,-12 -3.841197,0 -7.268829,1.845102 -9.464844,4.652344 z m 23.611344,-3.979594 c -0.781,0.781 -2.047,0.781 -2.828,0 -0.781,-0.78 -0.781,-2.047 0,-2.826999 l 2.828,-2.8279994 c 0.781,-0.7810001 2.047,-0.7810001 2.828,0 0.781,0.7799994 0.781,2.0469994 0,2.8279994 z m 7.857,13.312 -4,0 c -1.104,0 -2,-0.895 -2,-2 0,-1.104 0.896,-1.998 2,-1.998 l 4,0 c 1.104,0 2,0.895 2,1.998 0,1.105 -0.896,2 -2,2 z"
   style="fill:#ff8800;fill-opacity:1"
   inkscape:connector-curvature="0"
   sodipodi:nodetypes="ssccccssssssssccsscccsccccscccsssssss" /></svg>