<?xml version="1.0" encoding="UTF-8" standalone="no"?>
<!-- Generator: Adobe Illustrator 15.1.0, SVG Export Plug-In . SVG Version: 6.00 Build 0)  -->

<svg
   xmlns:dc="http://purl.org/dc/elements/1.1/"
   xmlns:cc="http://creativecommons.org/ns#"
   xmlns:rdf="http://www.w3.org/1999/02/22-rdf-syntax-ns#"
   xmlns:svg="http://www.w3.org/2000/svg"
   xmlns="http://www.w3.org/2000/svg"
   xmlns:sodipodi="http://sodipodi.sourceforge.net/DTD/sodipodi-0.dtd"
   xmlns:inkscape="http://www.inkscape.org/namespaces/inkscape"
   version="1.1"
   id="Layer_1"
   x="0px"
   y="0px"
   width="70"
   height="70"
   viewBox="0 0 70 70"
   enable-background="new 0 0 100 100"
   xml:space="preserve"
   inkscape:version="0.48.5 r10040"
   sodipodi:docname="cloud_hail_sun_alt.svg"><metadata
   id="metadata3295"><rdf:RDF><cc:Work
       rdf:about=""><dc:format>image/svg+xml</dc:format><dc:type
         rdf:resource="http://purl.org/dc/dcmitype/StillImage" /></cc:Work></rdf:RDF></metadata><defs
   id="defs3293" /><sodipodi:namedview
   pagecolor="#ffffff"
   bordercolor="#666666"
   borderopacity="1"
   objecttolerance="10"
   gridtolerance="10"
   guidetolerance="10"
   inkscape:pageopacity="0"
   inkscape:pageshadow="2"
   inkscape:window-width="1600"
   inkscape:window-height="1138"
   id="namedview3291"
   showgrid="false"
   inkscape:zoom="13.350176"
   inkscape:cx="52.936655"
   inkscape:cy="38.253369"
   inkscape:window-x="1594"
   inkscape:window-y="-6"
   inkscape:window-maximized="1"
   inkscape:current-layer="Layer_1" />
<path
   id="path3289"
   style="fill-rule:evenodd"
   d="m 52.998,53.9985 c 1.104,0 1.999,0.895 1.999,1.998 0,1.105 -0.895,2 -1.999,2 -1.104,0 -2,-0.895 -2,-2 0,-1.104 0.896,-1.998 2,-1.998 z m -14.998,-14 0,0 c 1.104,0 1,0.896 1,2 l 0,18.016 c 1.823,-2.434 4.723,-4.018 7.999,-4.018 l 0,2 c -4.418,0 -7.999,3.582 -7.999,8 l -2,0 c 0,-0.273 0.02,-0.539 0.04,-0.807 C 36.987,64.8555 37,64.4455 37,63.9965 l 0,-21.998 c 0,-1.104 -0.104,-2 1,-2 z m -7.999,19.998 c 1.104,0 2,0.896 2,2 0,1.104 -0.896,2 -2,2 -1.104,0 -2,-0.896 -2,-2 0,-1.104 0.895,-2 2,-2 z m 0,-4 c -1.104,0 -1,-0.895 -1,-1.998 l 0,-8 c 0,-1.104 -0.104,-2 1,-2 1.104,0 1,0.896 1,2 l 0,8 c 0,1.103 0.104,1.998 -1,1.998 z m -8.999,-13.998 c 0,-1.104 -0.104,-2 1,-2 l 0,0 c 1.104,0 1,0.896 1,2 l 0,23.998 -2,0 0,0 0,0 c 0,-2.209 -1.79,-4 -3.999,-4 l 0,-2 c 1.543,0 2.936,0.6 3.999,1.557 z m -9.999,16.998 c 1.105,0 2,0.896 2,2 0,1.105 -0.895,2 -2,2 -1.104,0 -2,-0.895 -2,-2 0,-1.104 0.896,-2 2,-2 z M 38.749054,18.46594 c -2.212,0 -8.447154,1.45979 -6.412054,3.88656 2.341,1.435 4.286,3.452 5.629,5.853 0.664,-0.113 1.338,-0.205 2.033,-0.205 2.126,0 4.119,0.559 5.85,1.527 l 0,0 c 1.707466,0.854297 2.209898,-2.464655 2.209898,-2.987655 0,-4.418 -4.892844,-8.073905 -9.309844,-8.073905 z M 49.192,32.2955 l 0,0 c 1.75,2.084 2.806,4.77 2.806,7.703 0,5.223 -3.342,9.652 -7.999,11.303 l 0,-4.381 c 2.389,-1.385 4,-3.963 4,-6.922 0,-4.416 -3.582,-7.998 -8,-7.998 -1.6,0 -3.082,0.48 -4.333,1.291 -1.231,-5.316 -5.974,-9.291 -11.665,-9.291 -6.626,0 -11.998,5.373 -11.998,12 0,1.404 0.252,2.748 0.697,3.998 l 0,0 c 0.68,1.91 1.822,3.6 3.303,4.926 l 0,4.916 c -3.66,-2.121 -6.393,-5.648 -7.477,-9.842 -0.332,-1.279 -0.523,-2.615 -0.523,-3.998 0,-8.835 7.163,-15.999 15.998,-15.999 1.573,0 3.09,0.232 4.524,0.655 3.880371,0.917269 5.655453,-3.155892 9.512453,-3.155892 6.626,0 10.688156,3.348554 10.688156,9.975554 0,1.515 -1.304223,2.434663 0.466391,4.819338 z"
   inkscape:connector-curvature="0"
   sodipodi:nodetypes="sssssccsccccccsscsssssssssssssccscccccccsssssssccsccssccsccsscsscccccsscssc" />
<path
   id="path8919"
   d="m 23.797881,16.628321 -2.827,-2.826999 c -0.781,-0.781 -0.781,-2.048 0,-2.828 0.78,-0.781 2.047,-0.781 2.827,0 l 2.828,2.828 c 0.781,0.779999 0.781,2.046999 0,2.826999 -0.78,0.781 -2.047,0.781 -2.828,0 z m 14.14,-4.685999 c -1.104,0 -1.999,-0.895 -1.999,-1.9990004 l 0,-3.9989992 c 0,-1.1049999 0.896,-1.9999999 1.999,-1.9999999 1.105,0 2,0.895 2,1.9999999 l 0,3.9989992 c 0,1.1050004 -0.894,1.9990004 -2,1.9990004 z m -9.470344,8.665593 c 0.987259,0.260238 3.307226,1.396384 3.808594,1.691406 1.447,-1.451 3.44425,-2.34375 5.65625,-2.34375 4.418,0 8,3.584 8,8 0,0.523 -0.06025,1.006 -0.15625,1.5 1.275604,0.726382 2.375224,1.736396 3.335937,2.78125 0.505325,-1.326166 0.81932,-2.776924 0.820313,-4.28125 0,-6.625 -5.373,-12 -12,-12 -3.841197,0 -7.268829,1.845102 -9.464844,4.652344 z m 23.611344,-3.979594 c -0.781,0.781 -2.047,0.781 -2.828,0 -0.781,-0.78 -0.781,-2.047 0,-2.826999 l 2.828,-2.828 c 0.781,-0.781 2.047,-0.781 2.828,0 0.781,0.78 0.781,2.047 0,2.828 z m 7.857,13.312 -4,0 c -1.104,0 -2,-0.895 -2,-2 0,-1.104 0.896,-1.998 2,-1.998 l 4,0 c 1.104,0 2,0.895 2,1.998 0,1.105 -0.896,2 -2,2 z"
   style="fill:#ff8800;fill-opacity:1"
   inkscape:connector-curvature="0"
   sodipodi:nodetypes="ssccccssssssssccsscccsccccscccsssssss" /></svg>