<?xml version="1.0" encoding="UTF-8" standalone="no"?>
<!-- Generator: Adobe Illustrator 15.1.0, SVG Export Plug-In . SVG Version: 6.00 Build 0)  -->

<svg
   xmlns:dc="http://purl.org/dc/elements/1.1/"
   xmlns:cc="http://creativecommons.org/ns#"
   xmlns:rdf="http://www.w3.org/1999/02/22-rdf-syntax-ns#"
   xmlns:svg="http://www.w3.org/2000/svg"
   xmlns="http://www.w3.org/2000/svg"
   xmlns:sodipodi="http://sodipodi.sourceforge.net/DTD/sodipodi-0.dtd"
   xmlns:inkscape="http://www.inkscape.org/namespaces/inkscape"
   version="1.1"
   id="Layer_1"
   x="0px"
   y="0px"
   width="60"
   height="60"
   viewBox="0 0 60 60"
   enable-background="new 0 0 100 100"
   xml:space="preserve"
   inkscape:version="0.48.5 r10040"
   sodipodi:docname="cloud_fog_sun_alt.svg"><metadata
   id="metadata3205"><rdf:RDF><cc:Work
       rdf:about=""><dc:format>image/svg+xml</dc:format><dc:type
         rdf:resource="http://purl.org/dc/dcmitype/StillImage" /></cc:Work></rdf:RDF></metadata><defs
   id="defs3203" /><sodipodi:namedview
   pagecolor="#ffffff"
   bordercolor="#666666"
   borderopacity="1"
   objecttolerance="10"
   gridtolerance="10"
   guidetolerance="10"
   inkscape:pageopacity="0"
   inkscape:pageshadow="2"
   inkscape:window-width="1600"
   inkscape:window-height="1138"
   id="namedview3201"
   showgrid="false"
   inkscape:zoom="9.44"
   inkscape:cx="68.588088"
   inkscape:cy="-4.9982785"
   inkscape:window-x="1594"
   inkscape:window-y="-6"
   inkscape:window-maximized="1"
   inkscape:current-layer="Layer_1" />
<path
   style="fill-rule:evenodd"
   d="m 44.818,33.0005 -40.641,0 c 0.281,-0.693 0.613,-1.359 0.984,-2 l 27.672,0 c 0.041,0.07 0.094,0.134 0.133,0.205 0.664,-0.114 1.337,-0.205 2.033,-0.205 2.125,0 4.119,0.559 5.85,1.527 l 0,0 c 1.817398,0.0092 2.295127,-2.939263 2.295127,-3.460263 0,-4.418 -4.111661,-8.502178 -8.529661,-8.502178 -2.025,0 -8.90078,2.215568 -6.892466,4.435441 l -16.459,0 c 2.294,-1.271 4.93,-1.999 7.738,-1.999 1.572,0 3.09,0.232 4.523,0.655 5.028686,0.0057 6.041729,-3.488746 9.898729,-3.488746 6.627,0 10.542432,4.364644 10.542432,10.991644 0,0.683 -0.464246,1.243068 0.852839,1.841102 z"
   id="path3525"
   inkscape:connector-curvature="0"
   sodipodi:nodetypes="cccccsccssccscssc" /><path
   style="fill-rule:evenodd"
   d="m 8.444,27.0005 h 21.081 c 0.696,0.611 1.337,1.278 1.918,2 H 6.524 c 0.58,-0.723 1.225,-1.388 1.92,-2 z"
   id="path3519" /><path
   style="fill-rule:evenodd"
   d="M 46.825,40.9985 H 3.142 c -0.082,-0.656 -0.139,-1.32 -0.139,-2 h 43.303 c 0.228,0.644 0.404,1.312 0.519,2 z"
   id="path3517" /><path
   style="fill-rule:evenodd"
   d="m 8.444,50.9985 h 35.48 c -0.68,0.758 -1.447,1.434 -2.299,1.998 H 11.263 c -1.016,-0.561 -1.955,-1.239 -2.819,-1.998 z"
   id="path3515" /><path
   style="fill-rule:evenodd"
   d="M 5.161,46.9985 H 46.3 c -0.246,0.699 -0.555,1.367 -0.92,2 H 6.524 c -0.504,-0.629 -0.957,-1.299 -1.363,-2 z"
   id="path3513" /><path
   style="fill-rule:evenodd"
   d="m 3.142,36.9985 c 0.085,-0.682 0.218,-1.346 0.387,-1.998 h 40.764 c -0.035,0.098 -0.062,0.197 -0.1,0.295 l 0,0 c 0.445,0.529 0.845,1.102 1.194,1.703 H 3.142 z"
   id="path3511" /><path
   style="fill-rule:evenodd"
   d="m 3.528,42.9985 h 43.47 c 0,0.684 -0.071,1.348 -0.181,2 H 4.177 c -0.262,-0.647 -0.473,-1.317 -0.649,-2 z"
   id="path3199" />
<path
   id="path8919"
   d="m 18.919155,19.687114 -2.827,-2.826999 c -0.781,-0.781 -0.781,-2.048 0,-2.828 0.78,-0.781 2.047,-0.781 2.827,0 l 2.828,2.828 c 0.781,0.779999 0.781,2.046999 0,2.826999 -0.78,0.781 -2.047,0.781 -2.828,0 z m 14.14,-4.685999 c -1.104,0 -1.999,-0.895 -1.999,-1.999 l 0,-3.9990003 c 0,-1.105 0.896,-2 1.999,-2 1.105,0 2,0.895 2,2 l 0,3.9990003 c 0,1.105 -0.894,1.999 -2,1.999 z m -9.470344,8.665593 c 0.987259,0.260238 3.307226,1.396384 3.808594,1.691406 1.447,-1.451 3.44425,-2.34375 5.65625,-2.34375 4.418,0 8,3.584 8,8 0,0.523 -0.06025,1.006 -0.15625,1.5 1.275604,0.726382 2.375224,1.736396 3.335937,2.78125 0.505325,-1.326166 0.81932,-2.776924 0.820313,-4.28125 0,-6.625 -5.373,-12 -12,-12 -3.841197,0 -7.268829,1.845102 -9.464844,4.652344 z m 23.611344,-3.979594 c -0.781,0.781 -2.047,0.781 -2.828,0 -0.781,-0.78 -0.781,-2.047 0,-2.826999 l 2.828,-2.828 c 0.781,-0.781 2.047,-0.781 2.828,0 0.781,0.78 0.781,2.047 0,2.828 z m 7.857,13.312 -4,0 c -1.104,0 -2,-0.895 -2,-2 0,-1.104 0.896,-1.998 2,-1.998 l 4,0 c 1.104,0 2,0.895 2,1.998 0,1.105 -0.896,2 -2,2 z"
   style="fill:#ff8800;fill-opacity:1"
   inkscape:connector-curvature="0"
   sodipodi:nodetypes="ssccccssssssssccsscccsccccscccsssssss" /></svg>