<?xml version="1.0" encoding="UTF-8" standalone="no"?>
<!-- Generator: Adobe Illustrator 15.1.0, SVG Export Plug-In . SVG Version: 6.00 Build 0)  -->

<svg
   xmlns:dc="http://purl.org/dc/elements/1.1/"
   xmlns:cc="http://creativecommons.org/ns#"
   xmlns:rdf="http://www.w3.org/1999/02/22-rdf-syntax-ns#"
   xmlns:svg="http://www.w3.org/2000/svg"
   xmlns="http://www.w3.org/2000/svg"
   xmlns:sodipodi="http://sodipodi.sourceforge.net/DTD/sodipodi-0.dtd"
   xmlns:inkscape="http://www.inkscape.org/namespaces/inkscape"
   version="1.1"
   id="Layer_1"
   x="0px"
   y="0px"
   width="70"
   height="70"
   viewBox="0 0 70 70"
   enable-background="new 0 0 100 100"
   xml:space="preserve"
   inkscape:version="0.48.5 r10040"
   sodipodi:docname="cloud_wind_moon.svg"><metadata
   id="metadata3656"><rdf:RDF><cc:Work
       rdf:about=""><dc:format>image/svg+xml</dc:format><dc:type
         rdf:resource="http://purl.org/dc/dcmitype/StillImage" /></cc:Work></rdf:RDF></metadata><defs
   id="defs3654" /><sodipodi:namedview
   pagecolor="#ffffff"
   bordercolor="#666666"
   borderopacity="1"
   objecttolerance="10"
   gridtolerance="10"
   guidetolerance="10"
   inkscape:pageopacity="0"
   inkscape:pageshadow="2"
   inkscape:window-width="1600"
   inkscape:window-height="1138"
   id="namedview3652"
   showgrid="false"
   inkscape:zoom="2.36"
   inkscape:cx="-51.271186"
   inkscape:cy="50"
   inkscape:window-x="1594"
   inkscape:window-y="-6"
   inkscape:window-maximized="1"
   inkscape:current-layer="Layer_1" />
<path
   clip-rule="evenodd"
   d="m 56.7475,50.4465 v 0.051 h -0.75 -2.999 c -1.104,0 -2,-0.895 -2,-2 0,-1.104 0.896,-1.999 2,-1.999 h 2.999 c 1.104,0 2,-0.896 2,-2 0,-1.104 -0.896,-1.999 -2,-1.999 -1.104,0 -2,-0.896 -2,-2 0,-1.105 0.896,-2 2,-2 0.139,0 0.273,0.014 0.403,0.041 3.122,0.211 5.596,2.783 5.596,5.958 0,3.058 -2.29,5.577 -5.249,5.948 z m -5.46,-19.946 h 0.01 c 0.213,0.602 0.385,1.222 0.5,1.863 -1.394,-0.995 -3.05,-1.646 -4.849,-1.815 -0.009,-0.017 -0.021,-0.031 -0.031,-0.048 h 0.003 c -1.384,-2.389 -3.962,-3.999 -6.921,-3.999 -1.6,0 -3.083,0.48 -4.333,1.29 -1.232,-5.316 -5.974,-9.29 -11.665,-9.29 -6.626,0 -11.998,5.372 -11.998,11.999 l 0,0 c 0,6.626 5.372,11.999 11.998,11.999 2.598,0 8.152,0 12.199,0 h 9.798 c 1.104,0 2,-0.896 2,-2 0,-1.105 -0.896,-2 -2,-2 -1.104,0 -1.999,-0.896 -1.999,-2 0,-1.104 0.896,-2 1.999,-2 0.139,0 0.273,0.014 0.403,0.041 3.122,0.211 5.597,2.783 5.597,5.959 0,3.059 -2.291,5.577 -5.25,5.947 v 0.052 h -0.75 -7.985 c -4.012,0 -11.357,0 -14.012,0 -1.104,0 -1.999,0.896 -1.999,1.999 0,1.105 0.895,2 1.999,2 h 21.997 0.75 v 0.053 c 2.959,0.369 5.25,2.889 5.25,5.947 0,3.175 -2.475,5.747 -5.597,5.958 -0.13,0.026 -0.265,0.041 -0.403,0.041 -1.104,0 -1.999,-0.896 -1.999,-2 0,-1.104 0.896,-1.999 1.999,-1.999 1.104,0 2,-0.896 2,-2 0,-1.105 -0.896,-2 -2,-2 h -21.997 -0.75 v -0.052 c -2.958,-0.37 -5.249,-2.89 -5.249,-5.948 0,-1.055 0.294,-2.032 0.773,-2.89 -6.266,-2.168 -10.772,-8.104 -10.772,-15.107 0,-8.835 7.163,-15.998 15.998,-15.998 2.002,0 3.914,0.376 5.68,1.048 1.635,-4.683 6.078,-8.047 11.318,-8.047 0.755,0 1.491,0.078 2.208,0.211 -0.132,0.576 -0.208,1.173 -0.208,1.789 0,4.418 3.581,7.998 7.999,7.998 0.615,0 1.212,-0.076 1.788,-0.207 0.134,0.717 0.212,1.452 0.212,2.207 0,3.135 -1.212,5.979 -3.18,8.115 0.618,0.88 1.102,1.854 1.469,2.884 z m -12.076,-18.79 c -2.9,0.663 -5.174,2.91 -5.924,5.774 l 0,0 c 1.917,1.372 3.522,3.153 4.679,5.222 0.664,-0.114 1.337,-0.205 2.033,-0.205 2.618,0 5.033,0.848 7.005,2.271 0.859,-0.98 1.486,-2.169 1.786,-3.482 -4.854,-0.905 -8.675,-4.726 -9.579,-9.58 z"
   id="path3650"
   inkscape:connector-curvature="0"
   style="fill-rule:evenodd" />
</svg>