<?xml version="1.0" encoding="UTF-8" standalone="no"?>
<!-- Generator: Adobe Illustrator 15.1.0, SVG Export Plug-In . SVG Version: 6.00 Build 0)  -->

<svg
   xmlns:dc="http://purl.org/dc/elements/1.1/"
   xmlns:cc="http://creativecommons.org/ns#"
   xmlns:rdf="http://www.w3.org/1999/02/22-rdf-syntax-ns#"
   xmlns:svg="http://www.w3.org/2000/svg"
   xmlns="http://www.w3.org/2000/svg"
   xmlns:sodipodi="http://sodipodi.sourceforge.net/DTD/sodipodi-0.dtd"
   xmlns:inkscape="http://www.inkscape.org/namespaces/inkscape"
   version="1.1"
   id="Layer_1"
   x="0px"
   y="0px"
   width="70"
   height="70"
   viewBox="0 0 70 70"
   enable-background="new 0 0 100 100"
   xml:space="preserve"
   inkscape:version="0.48.5 r10040"
   sodipodi:docname="cloud_drizzle.svg"><metadata
   id="metadata3002"><rdf:RDF><cc:Work
       rdf:about=""><dc:format>image/svg+xml</dc:format><dc:type
         rdf:resource="http://purl.org/dc/dcmitype/StillImage" /></cc:Work></rdf:RDF></metadata><defs
   id="defs3000" /><sodipodi:namedview
   pagecolor="#ffffff"
   bordercolor="#666666"
   borderopacity="1"
   objecttolerance="10"
   gridtolerance="10"
   guidetolerance="10"
   inkscape:pageopacity="0"
   inkscape:pageshadow="2"
   inkscape:window-width="1600"
   inkscape:window-height="1138"
   id="namedview2998"
   showgrid="false"
   inkscape:zoom="2.36"
   inkscape:cx="-51.271186"
   inkscape:cy="50"
   inkscape:window-x="1594"
   inkscape:window-y="-6"
   inkscape:window-maximized="1"
   inkscape:current-layer="Layer_1" />
<path
   clip-rule="evenodd"
   d="m 48.999,44.3015 v -4.381 c 2.387,-1.385 3.998,-3.961 3.998,-6.92 0,-4.418 -3.58,-8 -7.998,-8 -1.602,0 -3.084,0.481 -4.334,1.291 -1.232,-5.316 -5.973,-9.29 -11.664,-9.29 -6.627,0 -11.998,5.372 -11.998,11.999 0,3.549 1.549,6.729 3.998,8.926 v 4.914 c -4.777,-2.768 -7.998,-7.922 -7.998,-13.84 0,-8.836 7.162,-15.998 15.998,-15.998 6.004,0 11.229,3.312 13.965,8.203 0.664,-0.113 1.336,-0.205 2.033,-0.205 6.627,0 11.998,5.373 11.998,12 0,5.221 -3.341,9.653 -7.998,11.301 z m -21.998,-11.3 c 1.104,0 2,0.895 2,2 v 3.998 c 0,1.105 -0.896,2 -2,2 -1.105,0 -2,-0.895 -2,-2 v -3.998 c 0,-1.106 0.895,-2 2,-2 z m 0,11.998 c 1.104,0 2,0.895 2,2 v 3.998 c 0,1.105 -0.896,2 -2,2 -1.105,0 -2,-0.895 -2,-2 v -3.998 c 0,-1.106 0.895,-2 2,-2 z m 7.998,-8 c 1.105,0 2,0.896 2,2 v 4 c 0,1.104 -0.895,2 -2,2 -1.104,0 -1.998,-0.896 -1.998,-2 v -4 c 0,-1.104 0.895,-2 1.998,-2 z m 0,12 c 1.105,0 2,0.895 2,1.998 v 4 c 0,1.105 -0.895,2 -2,2 -1.104,0 -1.998,-0.895 -1.998,-2 v -4 c 0,-1.104 0.895,-1.998 1.998,-1.998 z m 8,-15.998 c 1.104,0 2,0.895 2,2 v 3.998 c 0,1.105 -0.896,2 -2,2 -1.105,0 -2,-0.895 -2,-2 v -3.998 c 0,-1.106 0.895,-2 2,-2 z m 0,11.998 c 1.104,0 2,0.895 2,2 v 3.998 c 0,1.105 -0.896,2 -2,2 -1.105,0 -2,-0.895 -2,-2 v -3.998 c 0,-1.106 0.895,-2 2,-2 z"
   id="path2996"
   inkscape:connector-curvature="0"
   style="fill-rule:evenodd" />
</svg>