<?xml version="1.0" encoding="UTF-8" standalone="no"?>
<!-- Generator: Adobe Illustrator 15.1.0, SVG Export Plug-In . SVG Version: 6.00 Build 0)  -->

<svg
   xmlns:dc="http://purl.org/dc/elements/1.1/"
   xmlns:cc="http://creativecommons.org/ns#"
   xmlns:rdf="http://www.w3.org/1999/02/22-rdf-syntax-ns#"
   xmlns:svg="http://www.w3.org/2000/svg"
   xmlns="http://www.w3.org/2000/svg"
   xmlns:sodipodi="http://sodipodi.sourceforge.net/DTD/sodipodi-0.dtd"
   xmlns:inkscape="http://www.inkscape.org/namespaces/inkscape"
   version="1.1"
   id="Layer_1"
   x="0px"
   y="0px"
   width="70"
   height="70"
   viewBox="0 0 70 70"
   enable-background="new 0 0 100 100"
   xml:space="preserve"
   inkscape:version="0.48.5 r10040"
   sodipodi:docname="cloud_snow_moon_alt.svg"><metadata
   id="metadata3566"><rdf:RDF><cc:Work
       rdf:about=""><dc:format>image/svg+xml</dc:format><dc:type
         rdf:resource="http://purl.org/dc/dcmitype/StillImage" /></cc:Work></rdf:RDF></metadata><defs
   id="defs3564" /><sodipodi:namedview
   pagecolor="#ffffff"
   bordercolor="#666666"
   borderopacity="1"
   objecttolerance="10"
   gridtolerance="10"
   guidetolerance="10"
   inkscape:pageopacity="0"
   inkscape:pageshadow="2"
   inkscape:window-width="1600"
   inkscape:window-height="1138"
   id="namedview3562"
   showgrid="false"
   inkscape:zoom="2.36"
   inkscape:cx="-51.271186"
   inkscape:cy="50"
   inkscape:window-x="1594"
   inkscape:window-y="-6"
   inkscape:window-maximized="1"
   inkscape:current-layer="Layer_1" />
<path
   clip-rule="evenodd"
   d="m 54.3175,32.618 0,0 c 1.369,1.949 2.18,4.319 2.18,6.881 0,5.223 -3.342,9.652 -7.999,11.303 v -4.381 c 2.389,-1.385 3.999,-3.963 3.999,-6.922 0,-4.417 -3.581,-7.999 -7.999,-7.999 -1.6,0 -3.083,0.48 -4.333,1.291 -1.232,-5.317 -5.974,-9.291 -11.665,-9.291 -6.626,0 -11.998,5.373 -11.998,12 0,3.549 1.55,6.729 3.999,8.924 v 4.916 c -4.776,-2.768 -7.999,-7.922 -7.999,-13.84 0,-8.835 7.163,-15.999 15.998,-15.999 2.002,0 3.914,0.376 5.68,1.048 l 0,0 c 1.635,-4.682 6.078,-8.047 11.318,-8.047 0.755,0 1.491,0.078 2.208,0.211 -0.132,0.576 -0.208,1.174 -0.208,1.789 0,4.418 3.581,7.998 7.999,7.998 0.615,0 1.212,-0.075 1.788,-0.207 0.134,0.717 0.212,1.453 0.212,2.207 0,3.136 -1.212,5.98 -3.18,8.118 z M 43.7105,16.711 c -2.9,0.664 -5.174,2.91 -5.924,5.775 l 0,0 c 1.917,1.372 3.522,3.152 4.679,5.221 0.664,-0.113 1.337,-0.205 2.033,-0.205 2.618,0 5.033,0.847 7.005,2.271 l 0,0 c 0.859,-0.98 1.486,-2.167 1.786,-3.482 -4.854,-0.905 -8.675,-4.726 -9.579,-9.58 z M 27.5725,45.5 c 0.552,-0.957 1.775,-1.283 2.731,-0.732 l 2.196,1.268 v -2.535 c 0,-1.104 0.896,-2 2,-2 1.104,0 1.999,0.896 1.999,2 v 2.535 l 2.196,-1.268 c 0.956,-0.551 2.18,-0.225 2.731,0.732 0.553,0.957 0.225,2.18 -0.731,2.732 l -2.195,1.268 2.196,1.268 c 0.956,0.553 1.284,1.775 0.731,2.732 -0.552,0.955 -1.775,1.283 -2.731,0.73 l -2.196,-1.267 v 2.535 c 0,1.105 -0.896,2 -1.999,2 -1.104,0 -2,-0.895 -2,-2 v -2.535 l -2.196,1.268 c -0.956,0.553 -2.18,0.225 -2.731,-0.73 -0.552,-0.957 -0.225,-2.18 0.731,-2.732 l 2.196,-1.268 -2.196,-1.268 c -0.956,-0.554 -1.284,-1.776 -0.732,-2.733 z m 6.928,6 c 1.104,0 1.999,-0.896 1.999,-2 0,-1.105 -0.896,-2 -1.999,-2 -1.104,0 -2,0.895 -2,2 0,1.103 0.895,2 2,2 z"
   id="path3560"
   inkscape:connector-curvature="0"
   style="fill-rule:evenodd" />
</svg>