<?xml version="1.0" encoding="UTF-8" standalone="no"?>
<!-- Generator: Adobe Illustrator 15.1.0, SVG Export Plug-In . SVG Version: 6.00 Build 0)  -->

<svg
   xmlns:dc="http://purl.org/dc/elements/1.1/"
   xmlns:cc="http://creativecommons.org/ns#"
   xmlns:rdf="http://www.w3.org/1999/02/22-rdf-syntax-ns#"
   xmlns:svg="http://www.w3.org/2000/svg"
   xmlns="http://www.w3.org/2000/svg"
   xmlns:sodipodi="http://sodipodi.sourceforge.net/DTD/sodipodi-0.dtd"
   xmlns:inkscape="http://www.inkscape.org/namespaces/inkscape"
   version="1.1"
   id="Layer_1"
   x="0px"
   y="0px"
   width="70"
   height="70"
   viewBox="0 0 70 70"
   enable-background="new 0 0 100 100"
   xml:space="preserve"
   inkscape:version="0.48.5 r10040"
   sodipodi:docname="cloud_fog.svg"><metadata
   id="metadata3115"><rdf:RDF><cc:Work
       rdf:about=""><dc:format>image/svg+xml</dc:format><dc:type
         rdf:resource="http://purl.org/dc/dcmitype/StillImage" /></cc:Work></rdf:RDF></metadata><defs
   id="defs3113" /><sodipodi:namedview
   pagecolor="#ffffff"
   bordercolor="#666666"
   borderopacity="1"
   objecttolerance="10"
   gridtolerance="10"
   guidetolerance="10"
   inkscape:pageopacity="0"
   inkscape:pageshadow="2"
   inkscape:window-width="1600"
   inkscape:window-height="1138"
   id="namedview3111"
   showgrid="false"
   inkscape:zoom="2.36"
   inkscape:cx="-51.271186"
   inkscape:cy="50"
   inkscape:window-x="1594"
   inkscape:window-y="-6"
   inkscape:window-maximized="1"
   inkscape:current-layer="Layer_1" />
<path
   clip-rule="evenodd"
   d="m 54.9975,46.9995 h -39.995 c -1.104,0 -2,-0.896 -2,-2 0,-1.105 0.896,-2 2,-2 h 39.995 c 1.104,0 2,0.895 2,2 0,1.103 -0.895,2 -2,2 z m 0,-8 h -39.995 c -1.104,0 -2,-0.895 -2,-2 0,-1.104 0.896,-2 2,-2 h 39.995 c 1.104,0 2,0.896 2,2 0,1.105 -0.895,2 -2,2 z m -9.999,-11.998 c -1.601,0 -3.083,0.48 -4.333,1.291 -1.232,-5.317 -5.974,-9.291 -11.665,-9.291 -6.626,0 -11.998,5.373 -11.998,12 h -4 c 0,-8.835 7.163,-15.999 15.998,-15.999 6.004,0 11.229,3.312 13.965,8.204 0.664,-0.113 1.337,-0.205 2.033,-0.205 5.222,0 9.652,3.342 11.301,8 h -4.381 c -1.384,-2.39 -3.961,-4 -6.92,-4 z m -29.996,23.996 h 39.995 c 1.104,0 2,0.896 2,2 0,1.105 -0.896,2 -2,2 h -39.995 c -1.104,0 -2,-0.895 -2,-2 0,-1.104 0.895,-2 2,-2 z"
   id="path3109"
   inkscape:connector-curvature="0"
   style="fill-rule:evenodd" />
</svg>