<?xml version="1.0" encoding="UTF-8" standalone="no"?>
<!-- Generator: Adobe Illustrator 15.1.0, SVG Export Plug-In . SVG Version: 6.00 Build 0)  -->

<svg
   xmlns:dc="http://purl.org/dc/elements/1.1/"
   xmlns:cc="http://creativecommons.org/ns#"
   xmlns:rdf="http://www.w3.org/1999/02/22-rdf-syntax-ns#"
   xmlns:svg="http://www.w3.org/2000/svg"
   xmlns="http://www.w3.org/2000/svg"
   xmlns:sodipodi="http://sodipodi.sourceforge.net/DTD/sodipodi-0.dtd"
   xmlns:inkscape="http://www.inkscape.org/namespaces/inkscape"
   version="1.1"
   id="Layer_1"
   x="0px"
   y="0px"
   width="70"
   height="70"
   viewBox="0 0 70 70"
   enable-background="new 0 0 100 100"
   xml:space="preserve"
   inkscape:version="0.48.5 r10040"
   sodipodi:docname="cloud_rain.svg"><metadata
   id="metadata3385"><rdf:RDF><cc:Work
       rdf:about=""><dc:format>image/svg+xml</dc:format><dc:type
         rdf:resource="http://purl.org/dc/dcmitype/StillImage" /></cc:Work></rdf:RDF></metadata><defs
   id="defs3383" /><sodipodi:namedview
   pagecolor="#ffffff"
   bordercolor="#666666"
   borderopacity="1"
   objecttolerance="10"
   gridtolerance="10"
   guidetolerance="10"
   inkscape:pageopacity="0"
   inkscape:pageshadow="2"
   inkscape:window-width="1600"
   inkscape:window-height="1138"
   id="namedview3381"
   showgrid="false"
   inkscape:zoom="2.36"
   inkscape:cx="-51.271186"
   inkscape:cy="50"
   inkscape:window-x="1594"
   inkscape:window-y="-6"
   inkscape:window-maximized="1"
   inkscape:current-layer="Layer_1" />
<path
   clip-rule="evenodd"
   d="m 48.9985,44.3 v -4.381 c 2.389,-1.383 4,-3.961 4,-6.92 0,-4.417 -3.582,-7.999 -8,-7.999 -1.6,0 -3.082,0.48 -4.333,1.291 -1.231,-5.317 -5.974,-9.29 -11.665,-9.29 -6.626,0 -11.998,5.372 -11.998,11.998 0,3.55 1.551,6.728 4,8.925 v 4.916 c -4.777,-2.768 -8,-7.922 -8,-13.841 0,-8.835 7.163,-15.997 15.998,-15.997 6.004,0 11.229,3.311 13.965,8.203 0.664,-0.113 1.338,-0.205 2.033,-0.205 6.627,0 11.999,5.372 11.999,11.999 0,5.223 -3.341,9.653 -7.999,11.301 z M 27.0015,33 c 1.104,0 1.999,0.896 1.999,2 v 15.998 c 0,1.105 -0.895,2 -1.999,2 -1.104,0 -2,-0.895 -2,-2 V 35 c 0,-1.104 0.896,-2 2,-2 z m 7.999,4 c 1.104,0 2,0.895 2,2 v 15.998 c 0,1.104 -0.896,2 -2,2 -1.104,0 -2,-0.896 -2,-2 V 39 c 0,-1.106 0.896,-2 2,-2 z m 7.999,-4 c 1.104,0 1.999,0.896 1.999,2 v 15.998 c 0,1.105 -0.895,2 -1.999,2 -1.104,0 -2,-0.895 -2,-2 V 35 c 0,-1.104 0.896,-2 2,-2 z"
   id="path3379"
   inkscape:connector-curvature="0"
   style="fill-rule:evenodd" />
</svg>