<?xml version="1.0" encoding="UTF-8" standalone="no"?>
<!-- Generator: Adobe Illustrator 15.1.0, SVG Export Plug-In . SVG Version: 6.00 Build 0)  -->

<svg
   xmlns:dc="http://purl.org/dc/elements/1.1/"
   xmlns:cc="http://creativecommons.org/ns#"
   xmlns:rdf="http://www.w3.org/1999/02/22-rdf-syntax-ns#"
   xmlns:svg="http://www.w3.org/2000/svg"
   xmlns="http://www.w3.org/2000/svg"
   xmlns:sodipodi="http://sodipodi.sourceforge.net/DTD/sodipodi-0.dtd"
   xmlns:inkscape="http://www.inkscape.org/namespaces/inkscape"
   version="1.1"
   id="Layer_1"
   x="0px"
   y="0px"
   width="70"
   height="70"
   viewBox="0 0 70 70"
   enable-background="new 0 0 100 100"
   xml:space="preserve"
   inkscape:version="0.48.5 r10040"
   sodipodi:docname="cloud_hail_sun.svg"><metadata
   id="metadata3277"><rdf:RDF><cc:Work
       rdf:about=""><dc:format>image/svg+xml</dc:format><dc:type
         rdf:resource="http://purl.org/dc/dcmitype/StillImage" /></cc:Work></rdf:RDF></metadata><defs
   id="defs3275" /><sodipodi:namedview
   pagecolor="#ffffff"
   bordercolor="#666666"
   borderopacity="1"
   objecttolerance="10"
   gridtolerance="10"
   guidetolerance="10"
   inkscape:pageopacity="0"
   inkscape:pageshadow="2"
   inkscape:window-width="1600"
   inkscape:window-height="1138"
   id="namedview3273"
   showgrid="false"
   inkscape:zoom="9.44"
   inkscape:cx="70.260649"
   inkscape:cy="23.202904"
   inkscape:window-x="1594"
   inkscape:window-y="-6"
   inkscape:window-maximized="1"
   inkscape:current-layer="Layer_1" />
<path
   id="path3271"
   style="fill-rule:evenodd"
   d="m 38.0005,56.9965 c 1.104,0 1.999,0.896 1.999,2 0,1.105 -0.896,2 -1.999,2 -1.104,0 -2,-0.895 -2,-2 0,-1.104 0.896,-2 2,-2 z m 0,-4 c -1.104,0 -1,-0.895 -1,-1.998 l 0,-8 c 0,-1.104 -0.104,-2 1,-2 1.104,0 0.999,0.896 0.999,2 l 0,8 c 0,1.103 0.105,1.998 -0.999,1.998 z m -7.999,8 c 1.104,0 1.999,0.895 1.999,2 0,1.104 -0.896,2 -1.999,2 -1.104,0 -2,-0.896 -2,-2 0,-1.106 0.895,-2 2,-2 z m 0,-4 c -1.104,0 -1,-0.895 -1,-2 l 0,-7.998 c 0,-1.105 -0.104,-2 1,-2 1.104,0 0.999,0.895 0.999,2 l 0,7.998 c 0,1.105 0.104,2 -0.999,2 z m -7.999,0 c 1.104,0 1.999,0.896 1.999,2 0,1.105 -0.896,2 -1.999,2 -1.104,0 -2,-0.895 -2,-2 0,-1.104 0.895,-2 2,-2 z m 0,-4 c -1.104,0 -1,-0.895 -1,-1.998 l 0,-8 c 0,-1.104 -0.104,-2 1,-2 1.104,0 0.999,0.896 0.999,2 l 0,8 c 0,1.103 0.104,1.998 -0.999,1.998 z M 38.150311,19.840467 c -2.213,0 -7.54829,1.010358 -5.812811,3.511033 2.341,1.435 4.286,3.452 5.629,5.854 0.664,-0.113 1.337,-0.205 2.033,-0.205 2.126,0 4.118,0.559 5.85,1.527 l 0,0 c 1.818824,0.217601 2.620878,-2.127581 2.620878,-2.650581 0,-4.419 -5.903067,-8.036452 -10.320067,-8.036452 z M 49.1925,33.2945 l 0,0 c 1.749,2.084 2.806,4.77 2.806,7.704 0,5.223 -3.342,9.652 -7.999,11.301 l 0,-4.381 c 2.389,-1.383 3.999,-3.961 3.999,-6.92 0,-4.417 -3.581,-7.999 -7.999,-7.999 -1.6,0 -3.083,0.48 -4.333,1.291 -1.232,-5.317 -5.974,-9.29 -11.665,-9.29 -6.626,0 -11.998,5.372 -11.998,11.998 0,3.55 1.55,6.728 3.999,8.925 l 0,4.916 c -4.776,-2.768 -7.999,-7.922 -7.999,-13.841 0,-8.835 7.163,-15.997 15.998,-15.997 1.572,0 3.089,0.231 4.524,0.654 4.70333,-0.31767 5.392284,-3.380609 9.250284,-3.380609 6.626,0 11.286399,4.24742 11.286399,10.87442 0,1.516 -1.229317,1.948777 0.130317,4.145189 z"
   inkscape:connector-curvature="0"
   sodipodi:nodetypes="sssssssssssssssssssssssssssssssssssssccsccssccsccsscssccsscssc" />
<path
   id="path8919"
   d="m 23.835333,17.676997 -2.827,-2.827 c -0.781,-0.781 -0.781,-2.048 0,-2.828 0.78,-0.781 2.047,-0.781 2.827,0 l 2.828,2.828 c 0.781,0.78 0.781,2.047 0,2.827 -0.78,0.781 -2.047,0.781 -2.828,0 z m 14.14,-4.686 c -1.104,0 -1.999,-0.895 -1.999,-1.999 l 0,-3.9989992 c 0,-1.105 0.896,-2 1.999,-2 1.105,0 2,0.895 2,2 l 0,3.9989992 c 0,1.105 -0.894,1.999 -2,1.999 z m -9.470344,8.665594 c 0.987259,0.260238 3.307226,1.396384 3.808594,1.691406 1.447,-1.451 3.44425,-2.34375 5.65625,-2.34375 4.418,0 8,3.584 8,8 0,0.523 -0.06025,1.006 -0.15625,1.5 1.275604,0.726382 2.375224,1.736396 3.335937,2.78125 0.505325,-1.326166 0.81932,-2.776924 0.820313,-4.28125 0,-6.625 -5.373,-12 -12,-12 -3.841197,0 -7.268829,1.845102 -9.464844,4.652344 z m 23.611344,-3.979594 c -0.781,0.781 -2.047,0.781 -2.828,0 -0.781,-0.78 -0.781,-2.047 0,-2.827 l 2.828,-2.828 c 0.781,-0.781 2.047,-0.781 2.828,0 0.781,0.78 0.781,2.047 0,2.828 z m 7.857,13.312 -4,0 c -1.104,0 -2,-0.895 -2,-2 0,-1.104 0.896,-1.998 2,-1.998 l 4,0 c 1.104,0 2,0.895 2,1.998 0,1.105 -0.896,2 -2,2 z"
   style="fill:#ff8800;fill-opacity:1"
   inkscape:connector-curvature="0"
   sodipodi:nodetypes="ssccccssssssssccsscccsccccscccsssssss" /></svg>