<?xml version="1.0" encoding="UTF-8" standalone="no"?>
<!-- Generator: Adobe Illustrator 15.1.0, SVG Export Plug-In . SVG Version: 6.00 Build 0)  -->

<svg
   xmlns:dc="http://purl.org/dc/elements/1.1/"
   xmlns:cc="http://creativecommons.org/ns#"
   xmlns:rdf="http://www.w3.org/1999/02/22-rdf-syntax-ns#"
   xmlns:svg="http://www.w3.org/2000/svg"
   xmlns="http://www.w3.org/2000/svg"
   xmlns:sodipodi="http://sodipodi.sourceforge.net/DTD/sodipodi-0.dtd"
   xmlns:inkscape="http://www.inkscape.org/namespaces/inkscape"
   version="1.1"
   id="Layer_1"
   x="0px"
   y="0px"
   width="70"
   height="70"
   viewBox="0 0 70 70"
   enable-background="new 0 0 100 100"
   xml:space="preserve"
   inkscape:version="0.48.5 r10040"
   sodipodi:docname="cloud_fog_sun.svg"><metadata
   id="metadata3187"><rdf:RDF><cc:Work
       rdf:about=""><dc:format>image/svg+xml</dc:format><dc:type
         rdf:resource="http://purl.org/dc/dcmitype/StillImage" /></cc:Work></rdf:RDF></metadata><defs
   id="defs3185" /><sodipodi:namedview
   pagecolor="#ffffff"
   bordercolor="#666666"
   borderopacity="1"
   objecttolerance="10"
   gridtolerance="10"
   guidetolerance="10"
   inkscape:pageopacity="0"
   inkscape:pageshadow="2"
   inkscape:window-width="1600"
   inkscape:window-height="1138"
   id="namedview3183"
   showgrid="false"
   inkscape:zoom="9.44"
   inkscape:cx="52.159454"
   inkscape:cy="16.808276"
   inkscape:window-x="1594"
   inkscape:window-y="-6"
   inkscape:window-maximized="1"
   inkscape:current-layer="Layer_1" />
<path
   id="path3181"
   style="fill-rule:evenodd"
   d="m 9.987711,58.999925 39.995,0 c 1.104,0 1.999,0.896 1.999,2 0,1.105 -0.896,2 -1.999,2 l -39.995,0 c -1.104,0 -2,-0.895 -2,-2 0,-1.104 0.895,-2 2,-2 z m 0,-7.998 39.995,0 c 1.104,0 1.999,0.895 1.999,2 0,1.104 -0.896,2 -1.999,2 l -39.995,0 c -1.104,0 -2,-0.896 -2,-2 0,-1.106 0.895,-2 2,-2 z m 0,-8 39.995,0 c 1.104,0 1.999,0.896 1.999,2 0,1.105 -0.896,2 -1.999,2 l -39.995,0 c -1.104,0 -2,-0.895 -2,-2 0,-1.104 0.895,-2 2,-2 z M 39.069839,20.757764 c -2.212,0 -8.484607,0.710736 -6.748128,4.598161 2.34,1.435 4.285,3.453 5.629,5.853 0.664,-0.113 1.337,-0.205 2.033,-0.205 2.125,0 4.118,0.559 5.85,1.527 l 0,0 c 2.380614,0.966655 2.09654,-1.940317 2.09654,-2.463317 0,-4.418 -4.442412,-9.309844 -8.860412,-9.309844 z m 10.106872,14.540161 0,0 c 0.912,1.088 1.63,2.34 2.113,3.705 l -4.387,0 c -1.384,-2.389 -3.961,-4 -6.92,-4 -1.601,0 -3.083,0.48 -4.334,1.291 -1.231,-5.316 -5.973,-9.291 -11.664,-9.291 -6.627,0 -11.999,5.373 -11.999,12 l -3.999,0 c 0,-8.836 7.162,-15.999 15.998,-15.999 1.572,0 3.089,0.232 4.523,0.655 3.131317,1.06708 4.981304,-3.717683 8.838304,-3.717683 6.627,0 11.43721,4.509588 11.43721,11.136588 10e-4,1.516 -1.228317,2.547021 0.393486,4.220095 z"
   inkscape:connector-curvature="0"
   sodipodi:nodetypes="ssssssssssssssssssssssccsccssccccscsccscscc" />
<path
   id="path8919"
   d="m 23.875289,19.684074 -2.827,-2.826999 c -0.781,-0.781 -0.781,-2.047999 0,-2.828 0.78,-0.781 2.047,-0.781 2.827,0 l 2.828,2.828 c 0.781,0.779999 0.781,2.046999 0,2.826999 -0.78,0.781 -2.047,0.781 -2.828,0 z m 14.14,-4.685999 c -1.104,0 -1.999,-0.895 -1.999,-1.999 l 0,-3.999 c 0,-1.104999 0.896,-2 1.999,-2 1.105,0 2,0.895001 2,2 l 0,3.999 c 0,1.105 -0.894,1.999 -2,1.999 z m -9.470344,8.665593 c 0.987259,0.260238 3.307226,1.396384 3.808594,1.691406 1.447,-1.451 3.44425,-2.34375 5.65625,-2.34375 4.418,0 8,3.584 8,8 0,0.523 -0.06025,1.006 -0.15625,1.5 1.275604,0.726382 2.375224,1.736396 3.335937,2.78125 0.505325,-1.326166 0.81932,-2.776924 0.820313,-4.28125 0,-6.625 -5.373,-12 -12,-12 -3.841197,0 -7.268829,1.845102 -9.464844,4.652344 z m 23.611344,-3.979594 c -0.781,0.781 -2.047,0.781 -2.828,0 -0.781,-0.78 -0.781,-2.047 0,-2.826999 l 2.828,-2.828 c 0.781,-0.781 2.047,-0.781 2.828,0 0.781,0.78 0.781,2.047 0,2.828 z m 7.857,13.312 -4,0 c -1.104,0 -2,-0.895 -2,-2 0,-1.104 0.896,-1.998 2,-1.998 l 4,0 c 1.104,0 2,0.895 2,1.998 0,1.105 -0.896,2 -2,2 z"
   style="fill:#ff8800;fill-opacity:1"
   inkscape:connector-curvature="0"
   sodipodi:nodetypes="ssccccssssssssccsscccsccccscccsssssss" /></svg>