<?xml version="1.0" encoding="UTF-8" standalone="no"?>
<!-- Generator: Adobe Illustrator 15.1.0, SVG Export Plug-In . SVG Version: 6.00 Build 0)  -->

<svg
   xmlns:dc="http://purl.org/dc/elements/1.1/"
   xmlns:cc="http://creativecommons.org/ns#"
   xmlns:rdf="http://www.w3.org/1999/02/22-rdf-syntax-ns#"
   xmlns:svg="http://www.w3.org/2000/svg"
   xmlns="http://www.w3.org/2000/svg"
   xmlns:sodipodi="http://sodipodi.sourceforge.net/DTD/sodipodi-0.dtd"
   xmlns:inkscape="http://www.inkscape.org/namespaces/inkscape"
   version="1.1"
   id="Layer_1"
   x="0px"
   y="0px"
   width="70"
   height="70"
   viewBox="0 0 70 70"
   enable-background="new 0 0 100 100"
   xml:space="preserve"
   inkscape:version="0.48.5 r10040"
   sodipodi:docname="cloud_lightning.svg"><metadata
   id="metadata3313"><rdf:RDF><cc:Work
       rdf:about=""><dc:format>image/svg+xml</dc:format><dc:type
         rdf:resource="http://purl.org/dc/dcmitype/StillImage" /></cc:Work></rdf:RDF></metadata><defs
   id="defs3311" /><sodipodi:namedview
   pagecolor="#ffffff"
   bordercolor="#666666"
   borderopacity="1"
   objecttolerance="10"
   gridtolerance="10"
   guidetolerance="10"
   inkscape:pageopacity="0"
   inkscape:pageshadow="2"
   inkscape:window-width="1600"
   inkscape:window-height="1138"
   id="namedview3309"
   showgrid="false"
   inkscape:zoom="2.36"
   inkscape:cx="-51.271186"
   inkscape:cy="50"
   inkscape:window-x="1594"
   inkscape:window-y="-6"
   inkscape:window-maximized="1"
   inkscape:current-layer="Layer_1" />
<path
   clip-rule="evenodd"
   d="m 44.9975,45 c -0.28,0 -0.649,0 -1.062,0 l 3.585,-4.412 c 3.181,-1.057 5.477,-4.053 5.477,-7.588 0,-4.418 -3.581,-7.998 -7.999,-7.998 -1.601,0 -3.083,0.48 -4.333,1.29 -1.232,-5.316 -5.974,-9.29 -11.665,-9.29 -6.626,0 -11.998,5.372 -11.998,12 0,5.446 3.632,10.038 8.604,11.504 l -1.349,3.777 c -6.52,-2.021 -11.255,-8.098 -11.255,-15.282 0,-8.835 7.163,-15.999 15.998,-15.999 6.004,0 11.229,3.312 13.965,8.204 0.664,-0.114 1.337,-0.205 2.033,-0.205 6.627,0 11.999,5.371 11.999,11.998 0,6.627 -5.373,12.001 -12,12.001 z M 32.9995,31 h 9.998 l -5.999,10 h 6.999 L 30.9995,56.998 34.5995,45 h -6.6 l 5,-14 z"
   id="path3307"
   inkscape:connector-curvature="0"
   style="fill-rule:evenodd" />
</svg>