<?xml version="1.0" encoding="UTF-8" standalone="no"?>
<!-- Generator: Adobe Illustrator 15.1.0, SVG Export Plug-In . SVG Version: 6.00 Build 0)  -->

<svg
   xmlns:dc="http://purl.org/dc/elements/1.1/"
   xmlns:cc="http://creativecommons.org/ns#"
   xmlns:rdf="http://www.w3.org/1999/02/22-rdf-syntax-ns#"
   xmlns:svg="http://www.w3.org/2000/svg"
   xmlns="http://www.w3.org/2000/svg"
   xmlns:sodipodi="http://sodipodi.sourceforge.net/DTD/sodipodi-0.dtd"
   xmlns:inkscape="http://www.inkscape.org/namespaces/inkscape"
   version="1.1"
   id="Layer_1"
   x="0px"
   y="0px"
   width="70"
   height="70"
   viewBox="0 0 70 70"
   enable-background="new 0 0 100 100"
   xml:space="preserve"
   inkscape:version="0.48.5 r10040"
   sodipodi:docname="cloud_fog_alt.svg"><metadata
   id="metadata3133"><rdf:RDF><cc:Work
       rdf:about=""><dc:format>image/svg+xml</dc:format><dc:type
         rdf:resource="http://purl.org/dc/dcmitype/StillImage" /></cc:Work></rdf:RDF></metadata><defs
   id="defs3131" /><sodipodi:namedview
   pagecolor="#ffffff"
   bordercolor="#666666"
   borderopacity="1"
   objecttolerance="10"
   gridtolerance="10"
   guidetolerance="10"
   inkscape:pageopacity="0"
   inkscape:pageshadow="2"
   inkscape:window-width="1600"
   inkscape:window-height="1138"
   id="namedview3129"
   showgrid="false"
   inkscape:zoom="2.36"
   inkscape:cx="-51.271186"
   inkscape:cy="50"
   inkscape:window-x="1594"
   inkscape:window-y="-6"
   inkscape:window-maximized="1"
   inkscape:current-layer="Layer_1" />
<path
   clip-rule="evenodd"
   d="m 14.176,41.999 c -0.262,-0.646 -0.473,-1.315 -0.648,-2 h 43.47 c 0,0.684 -0.07,1.348 -0.181,2 H 14.176 z m 7.086,-19.998 c 2.294,-1.271 4.93,-1.999 7.738,-1.999 2.806,0 5.436,0.73 7.727,1.999 H 21.262 z M 13.141,34 c 0.085,-0.682 0.218,-1.347 0.387,-1.999 h 40.396 c 0.551,0.613 1.039,1.281 1.455,1.999 H 13.141 z m 1.035,-3.999 c 0.281,-0.693 0.613,-1.359 0.984,-2 h 27.682 c 0.04,0.068 0.084,0.135 0.123,0.205 0.664,-0.114 1.338,-0.205 2.033,-0.205 2.451,0 4.729,0.738 6.627,2 H 14.176 z m 2.347,-4 c 0.58,-0.723 1.225,-1.388 1.92,-2 h 21.122 c 0.69,0.61 1.326,1.28 1.903,2 H 16.523 z M 56.816,37.999 H 13.141 C 13.059,37.343 13.002,36.679 13.002,36 H 56.3 c 0.227,0.643 0.401,1.311 0.516,1.999 z m -0.516,6 c -0.247,0.699 -0.555,1.367 -0.921,2 H 16.523 C 16.018,45.37 15.566,44.7 15.16,43.999 H 56.3 z m -37.857,4 h 35.48 c -0.68,0.758 -1.447,1.434 -2.299,1.999 H 21.262 c -1.016,-0.562 -1.954,-1.24 -2.819,-1.999 z"
   id="path3127"
   inkscape:connector-curvature="0"
   style="fill-rule:evenodd" />
</svg>