<?xml version="1.0" encoding="UTF-8" standalone="no"?>
<!-- Generator: Adobe Illustrator 15.1.0, SVG Export Plug-In . SVG Version: 6.00 Build 0)  -->

<svg
   xmlns:dc="http://purl.org/dc/elements/1.1/"
   xmlns:cc="http://creativecommons.org/ns#"
   xmlns:rdf="http://www.w3.org/1999/02/22-rdf-syntax-ns#"
   xmlns:svg="http://www.w3.org/2000/svg"
   xmlns="http://www.w3.org/2000/svg"
   xmlns:sodipodi="http://sodipodi.sourceforge.net/DTD/sodipodi-0.dtd"
   xmlns:inkscape="http://www.inkscape.org/namespaces/inkscape"
   version="1.1"
   id="Layer_1"
   x="0px"
   y="0px"
   width="70"
   height="70"
   viewBox="0 0 70 70"
   enable-background="new 0 0 100 100"
   xml:space="preserve"
   inkscape:version="0.48.5 r10040"
   sodipodi:docname="cloud_drizzle_moon_alt.svg"><metadata
   id="metadata9"><rdf:RDF><cc:Work
       rdf:about=""><dc:format>image/svg+xml</dc:format><dc:type
         rdf:resource="http://purl.org/dc/dcmitype/StillImage" /></cc:Work></rdf:RDF></metadata><defs
   id="defs7" /><sodipodi:namedview
   pagecolor="#ffffff"
   bordercolor="#666666"
   borderopacity="1"
   objecttolerance="10"
   gridtolerance="10"
   guidetolerance="10"
   inkscape:pageopacity="0"
   inkscape:pageshadow="2"
   inkscape:window-width="1213"
   inkscape:window-height="899"
   id="namedview5"
   showgrid="false"
   inkscape:zoom="6.675088"
   inkscape:cx="23.256942"
   inkscape:cy="41.760592"
   inkscape:window-x="0"
   inkscape:window-y="0"
   inkscape:window-maximized="0"
   inkscape:current-layer="Layer_1" />
<path
   clip-rule="evenodd"
   d="m 54.318,30.392 c 1.369,1.949 2.179,4.318 2.179,6.882 l 0,0 c 0,5.227 -3.349,9.66 -8.013,11.305 -0.027,-1.336 -0.434,-2.66 -1.223,-3.807 3.055,-1.127 5.236,-4.055 5.236,-7.498 l 0,0 0,0 c 0,-4.417 -3.581,-8 -7.999,-8 -1.601,0 -3.083,0.482 -4.334,1.291 -1.231,-5.316 -5.973,-9.29 -11.664,-9.29 -6.627,0 -11.999,5.372 -11.999,11.999 0,1.404 0.254,2.746 0.698,4 h 0.015 c 0.975,2.74 2.895,5.031 5.394,6.445 l -0.057,0.057 c -0.981,0.98 -1.596,2.184 -1.872,3.445 -3.751,-2.107 -6.551,-5.686 -7.652,-9.947 l 0,0 c -0.33,-1.281 -0.524,-2.617 -0.524,-4 0,-8.835 7.162,-15.998 15.998,-15.998 2.002,0 3.914,0.375 5.679,1.047 1.636,-4.682 6.079,-8.047 11.319,-8.047 0.755,0 1.491,0.078 2.207,0.212 -0.132,0.575 -0.208,1.173 -0.208,1.788 0,4.418 3.582,7.999 8,7.999 0.615,0 1.212,-0.076 1.787,-0.208 0.134,0.717 0.212,1.453 0.212,2.208 -10e-4,3.135 -1.212,5.981 -3.179,8.117 z M 43.71,14.485 c -2.9,0.664 -5.175,2.91 -5.924,5.775 l 0,0 c 1.917,1.372 3.521,3.152 4.679,5.221 0.664,-0.113 1.337,-0.205 2.033,-0.205 2.618,0 5.032,0.849 7.005,2.271 0.858,-0.979 1.485,-2.168 1.786,-3.482 -4.854,-0.905 -8.675,-4.725 -9.579,-9.58 z m -16.21,29.999 2.121,2.121 c 1.172,1.172 1.172,3.07 0,4.242 -1.171,1.172 -3.07,1.172 -4.242,0 -1.171,-1.172 -1.171,-3.07 0,-4.242 L 27.5,44.484 z m 6.999,7.998 2.121,2.121 c 1.172,1.172 1.172,3.072 0,4.242 -1.171,1.172 -3.07,1.172 -4.242,0 -1.171,-1.17 -1.171,-3.07 0,-4.242 l 2.121,-2.121 z m 6.999,-7.998 2.121,2.121 c 1.172,1.172 1.172,3.07 0,4.242 -1.171,1.172 -3.07,1.172 -4.242,0 -1.171,-1.172 -1.171,-3.07 0,-4.242 l 2.121,-2.121 z"
   id="path3"
   inkscape:connector-curvature="0"
   style="fill-rule:evenodd" />
</svg>