<?xml version="1.0" encoding="UTF-8" standalone="no"?>
<!-- Generator: Adobe Illustrator 15.1.0, SVG Export Plug-In . SVG Version: 6.00 Build 0)  -->

<svg
   xmlns:dc="http://purl.org/dc/elements/1.1/"
   xmlns:cc="http://creativecommons.org/ns#"
   xmlns:rdf="http://www.w3.org/1999/02/22-rdf-syntax-ns#"
   xmlns:svg="http://www.w3.org/2000/svg"
   xmlns="http://www.w3.org/2000/svg"
   xmlns:sodipodi="http://sodipodi.sourceforge.net/DTD/sodipodi-0.dtd"
   xmlns:inkscape="http://www.inkscape.org/namespaces/inkscape"
   version="1.1"
   id="Layer_1"
   x="0px"
   y="0px"
   width="70"
   height="70"
   viewBox="0 0 70 70"
   enable-background="new 0 0 100 100"
   xml:space="preserve"
   inkscape:version="0.48.5 r10040"
   sodipodi:docname="cloud_hail_moon.svg"><metadata
   id="metadata3241"><rdf:RDF><cc:Work
       rdf:about=""><dc:format>image/svg+xml</dc:format><dc:type
         rdf:resource="http://purl.org/dc/dcmitype/StillImage" /></cc:Work></rdf:RDF></metadata><defs
   id="defs3239" /><sodipodi:namedview
   pagecolor="#ffffff"
   bordercolor="#666666"
   borderopacity="1"
   objecttolerance="10"
   gridtolerance="10"
   guidetolerance="10"
   inkscape:pageopacity="0"
   inkscape:pageshadow="2"
   inkscape:window-width="1600"
   inkscape:window-height="1138"
   id="namedview3237"
   showgrid="false"
   inkscape:zoom="2.36"
   inkscape:cx="-51.271186"
   inkscape:cy="50"
   inkscape:window-x="1594"
   inkscape:window-y="-6"
   inkscape:window-maximized="1"
   inkscape:current-layer="Layer_1" />
<path
   clip-rule="evenodd"
   d="m 54.318,29.617 0,0 c 1.369,1.949 2.18,4.32 2.18,6.882 0,5.223 -3.343,9.652 -8,11.301 v -4.381 c 2.389,-1.383 4,-3.961 4,-6.92 0,-4.417 -3.581,-7.999 -7.999,-7.999 -1.601,0 -3.083,0.48 -4.333,1.291 -1.232,-5.317 -5.974,-9.29 -11.665,-9.29 -6.626,0 -11.998,5.372 -11.998,11.998 0,3.55 1.55,6.728 3.999,8.925 v 4.916 c -4.777,-2.768 -7.999,-7.922 -7.999,-13.841 0,-8.835 7.163,-15.997 15.998,-15.997 2.002,0 3.914,0.375 5.68,1.047 l 0,0 c 1.635,-4.682 6.078,-8.047 11.318,-8.047 0.755,0 1.491,0.078 2.208,0.212 -0.132,0.575 -0.208,1.173 -0.208,1.788 0,4.418 3.581,7.999 7.999,7.999 0.615,0 1.212,-0.076 1.788,-0.208 0.133,0.717 0.211,1.453 0.211,2.207 0,3.136 -1.211,5.98 -3.179,8.117 z M 43.711,13.71 c -2.9,0.664 -5.174,2.91 -5.924,5.775 l 0,0 c 1.917,1.372 3.521,3.152 4.679,5.221 0.664,-0.113 1.337,-0.205 2.033,-0.205 2.618,0 5.032,0.848 7.005,2.271 l 0,0 c 0.858,-0.98 1.485,-2.168 1.786,-3.482 -4.854,-0.904 -8.675,-4.724 -9.579,-9.58 z m -17.21,34.788 c -1.104,0 -0.999,-0.895 -0.999,-1.998 v -8 c 0,-1.104 -0.105,-2 0.999,-2 1.104,0 1,0.896 1,2 v 8 c 0,1.103 0.104,1.998 -1,1.998 z m 0,4 c 1.104,0 2,0.896 2,2 0,1.105 -0.896,2 -2,2 -1.104,0 -1.999,-0.895 -1.999,-2 0,-1.104 0.894,-2 1.999,-2 z m 7.999,0 c -1.104,0 -1,-0.895 -1,-2 V 42.5 c 0,-1.105 -0.104,-2 1,-2 1.104,0 1,0.895 1,2 v 7.998 c 0,1.105 0.104,2 -1,2 z m 0,4 c 1.104,0 2,0.895 2,2 0,1.104 -0.896,2 -2,2 -1.104,0 -1.999,-0.896 -1.999,-2 0,-1.106 0.895,-2 1.999,-2 z m 7.999,-8 c -1.104,0 -1,-0.895 -1,-1.998 v -8 c 0,-1.104 -0.104,-2 1,-2 1.104,0 1,0.896 1,2 v 8 c 0,1.103 0.105,1.998 -1,1.998 z m 0,4 c 1.104,0 2,0.896 2,2 0,1.105 -0.896,2 -2,2 -1.104,0 -1.999,-0.895 -1.999,-2 0,-1.104 0.895,-2 1.999,-2 z"
   id="path3235"
   inkscape:connector-curvature="0"
   style="fill-rule:evenodd" />
</svg>