<?xml version="1.0" encoding="UTF-8" standalone="no"?>
<!-- Generator: Adobe Illustrator 15.1.0, SVG Export Plug-In . SVG Version: 6.00 Build 0)  -->

<svg
   xmlns:dc="http://purl.org/dc/elements/1.1/"
   xmlns:cc="http://creativecommons.org/ns#"
   xmlns:rdf="http://www.w3.org/1999/02/22-rdf-syntax-ns#"
   xmlns:svg="http://www.w3.org/2000/svg"
   xmlns="http://www.w3.org/2000/svg"
   xmlns:sodipodi="http://sodipodi.sourceforge.net/DTD/sodipodi-0.dtd"
   xmlns:inkscape="http://www.inkscape.org/namespaces/inkscape"
   version="1.1"
   id="Layer_1"
   x="0px"
   y="0px"
   width="70"
   height="70"
   viewBox="0 0 70 70"
   enable-background="new 0 0 100 100"
   xml:space="preserve"
   inkscape:version="0.48.5 r10040"
   sodipodi:docname="cloud_snow_moon.svg"><metadata
   id="metadata3548"><rdf:RDF><cc:Work
       rdf:about=""><dc:format>image/svg+xml</dc:format><dc:type
         rdf:resource="http://purl.org/dc/dcmitype/StillImage" /></cc:Work></rdf:RDF></metadata><defs
   id="defs3546" /><sodipodi:namedview
   pagecolor="#ffffff"
   bordercolor="#666666"
   borderopacity="1"
   objecttolerance="10"
   gridtolerance="10"
   guidetolerance="10"
   inkscape:pageopacity="0"
   inkscape:pageshadow="2"
   inkscape:window-width="1600"
   inkscape:window-height="1138"
   id="namedview3544"
   showgrid="false"
   inkscape:zoom="2.36"
   inkscape:cx="-51.271186"
   inkscape:cy="50"
   inkscape:window-x="1594"
   inkscape:window-y="-6"
   inkscape:window-maximized="1"
   inkscape:current-layer="Layer_1" />
<path
   clip-rule="evenodd"
   d="m 54.317,31.618 0,0 c 1.369,1.949 2.18,4.319 2.18,6.881 0,5.223 -3.342,9.652 -7.998,11.303 v -4.381 c 2.388,-1.385 3.999,-3.963 3.999,-6.922 0,-4.417 -3.581,-7.999 -7.999,-7.999 -1.601,0 -3.084,0.48 -4.334,1.291 C 38.934,26.474 34.192,22.5 28.501,22.5 c -6.627,0 -11.998,5.373 -11.998,12 0,3.549 1.55,6.729 3.999,8.924 v 4.916 c -4.777,-2.768 -7.999,-7.922 -7.999,-13.84 0,-8.835 7.162,-15.999 15.998,-15.999 2.002,0 3.914,0.376 5.68,1.048 l 0,0 c 1.635,-4.682 6.078,-8.047 11.318,-8.047 0.755,0 1.49,0.078 2.207,0.211 -0.131,0.576 -0.207,1.174 -0.207,1.789 0,4.418 3.58,7.998 7.998,7.998 0.616,0 1.213,-0.075 1.789,-0.207 0.133,0.717 0.211,1.453 0.211,2.207 0,3.136 -1.211,5.98 -3.18,8.118 z M 43.71,15.711 c -2.899,0.664 -5.174,2.91 -5.924,5.775 1.918,1.372 3.523,3.152 4.68,5.221 0.664,-0.113 1.336,-0.205 2.033,-0.205 2.617,0 5.033,0.848 7.005,2.271 l 0,0 c 0.858,-0.98 1.485,-2.167 1.786,-3.482 -4.854,-0.905 -8.676,-4.726 -9.58,-9.58 z M 26.501,42.5 c 1.104,0 2,0.896 2,2 0,1.105 -0.896,2 -2,2 -1.104,0 -2,-0.895 -2,-2 0,-1.104 0.895,-2 2,-2 z m 0,8 c 1.104,0 2,0.895 2,2 0,1.104 -0.896,1.998 -2,1.998 -1.104,0 -2,-0.895 -2,-1.998 0,-1.106 0.895,-2 2,-2 z m 7.999,-4 c 1.104,0 2,0.895 2,2 0,1.104 -0.896,2 -2,2 -1.104,0 -1.999,-0.896 -1.999,-2 0,-1.106 0.895,-2 1.999,-2 z m 0,7.998 c 1.104,0 2,0.896 2,2 0,1.105 -0.896,2 -2,2 -1.104,0 -1.999,-0.895 -1.999,-2 0,-1.104 0.895,-2 1.999,-2 z M 42.499,42.5 c 1.104,0 2,0.896 2,2 0,1.105 -0.896,2 -2,2 -1.104,0 -2,-0.895 -2,-2 0,-1.104 0.896,-2 2,-2 z m 0,8 c 1.104,0 2,0.895 2,2 0,1.104 -0.896,1.998 -2,1.998 -1.104,0 -2,-0.895 -2,-1.998 0,-1.106 0.896,-2 2,-2 z"
   id="path3542"
   inkscape:connector-curvature="0"
   style="fill-rule:evenodd" />
</svg>