<?xml version="1.0" encoding="UTF-8" standalone="no"?>
<!-- Generator: Adobe Illustrator 15.1.0, SVG Export Plug-In . SVG Version: 6.00 Build 0)  -->

<svg
   xmlns:dc="http://purl.org/dc/elements/1.1/"
   xmlns:cc="http://creativecommons.org/ns#"
   xmlns:rdf="http://www.w3.org/1999/02/22-rdf-syntax-ns#"
   xmlns:svg="http://www.w3.org/2000/svg"
   xmlns="http://www.w3.org/2000/svg"
   xmlns:sodipodi="http://sodipodi.sourceforge.net/DTD/sodipodi-0.dtd"
   xmlns:inkscape="http://www.inkscape.org/namespaces/inkscape"
   version="1.1"
   id="Layer_1"
   x="0px"
   y="0px"
   width="70"
   height="70"
   viewBox="0 0 70 70"
   enable-background="new 0 0 100 100"
   xml:space="preserve"
   inkscape:version="0.48.5 r10040"
   sodipodi:docname="cloud_fog_moon_alt.svg"><metadata
   id="metadata3169"><rdf:RDF><cc:Work
       rdf:about=""><dc:format>image/svg+xml</dc:format><dc:type
         rdf:resource="http://purl.org/dc/dcmitype/StillImage" /></cc:Work></rdf:RDF></metadata><defs
   id="defs3167" /><sodipodi:namedview
   pagecolor="#ffffff"
   bordercolor="#666666"
   borderopacity="1"
   objecttolerance="10"
   gridtolerance="10"
   guidetolerance="10"
   inkscape:pageopacity="0"
   inkscape:pageshadow="2"
   inkscape:window-width="1600"
   inkscape:window-height="1138"
   id="namedview3165"
   showgrid="false"
   inkscape:zoom="9.44"
   inkscape:cx="20.134998"
   inkscape:cy="18.116455"
   inkscape:window-x="1594"
   inkscape:window-y="-6"
   inkscape:window-maximized="1"
   inkscape:current-layer="Layer_1" />
<path
   clip-rule="evenodd"
   d="m 51.714,33.5005 c 0.746,-0.927 1.303,-2.013 1.576,-3.211 -4.854,-0.904 -8.676,-4.726 -9.579,-9.58 -2.559,0.585 -4.626,2.404 -5.594,4.791 H 20.763 c 2.293,-1.271 4.93,-1.999 7.738,-1.999 2.002,0 3.914,0.376 5.68,1.048 1.635,-4.683 6.078,-8.047 11.318,-8.047 0.755,0 1.491,0.078 2.207,0.211 -0.131,0.576 -0.207,1.173 -0.207,1.789 0,4.418 3.581,7.998 7.998,7.998 0.616,0 1.213,-0.076 1.789,-0.207 0.133,0.717 0.211,1.452 0.211,2.207 0,1.789 -0.405,3.478 -1.109,5 h -4.674 z m 4.783,9.998 c 0,0.684 -0.07,1.348 -0.18,2 h -42.64 c -0.262,-0.646 -0.473,-1.315 -0.649,-2 h 43.469 z m -0.697,4 c -0.247,0.699 -0.555,1.367 -0.92,2 H 16.023 c -0.505,-0.629 -0.956,-1.299 -1.362,-2 H 55.8 z m -2.375,4 c -0.68,0.758 -1.447,1.434 -2.299,1.999 H 20.763 c -1.016,-0.562 -1.955,-1.239 -2.818,-1.999 h 35.48 z m -40.783,-10 c -0.082,-0.656 -0.139,-1.32 -0.139,-1.999 h 43.284 c 0.229,0.646 0.417,1.31 0.534,1.999 H 12.642 z m 41.676,-4.883 c 0.196,0.281 0.354,0.588 0.527,0.884 H 12.642 c 0.085,-0.682 0.218,-1.347 0.386,-1.999 h 42.19 c -0.281,0.386 -0.576,0.764 -0.9,1.115 z m -3.221,-3.115 h -37.42 c 0.281,-0.693 0.613,-1.359 0.984,-2 h 27.675 c 0.04,0.07 0.091,0.134 0.13,0.205 0.664,-0.114 1.337,-0.205 2.033,-0.205 2.443,0 4.703,0.745 6.598,2 z m -33.153,-6 h 21.111 c 0.689,0.607 1.314,1.283 1.891,2 H 16.023 c 0.581,-0.723 1.226,-1.388 1.921,-2 z"
   id="path3163"
   inkscape:connector-curvature="0"
   style="fill-rule:evenodd" />
</svg>