<?xml version="1.0" encoding="UTF-8" standalone="no"?>
<!-- Generator: Adobe Illustrator 15.1.0, SVG Export Plug-In . SVG Version: 6.00 Build 0)  -->

<svg
   xmlns:dc="http://purl.org/dc/elements/1.1/"
   xmlns:cc="http://creativecommons.org/ns#"
   xmlns:rdf="http://www.w3.org/1999/02/22-rdf-syntax-ns#"
   xmlns:svg="http://www.w3.org/2000/svg"
   xmlns="http://www.w3.org/2000/svg"
   xmlns:sodipodi="http://sodipodi.sourceforge.net/DTD/sodipodi-0.dtd"
   xmlns:inkscape="http://www.inkscape.org/namespaces/inkscape"
   version="1.1"
   id="Layer_1"
   x="0px"
   y="0px"
   width="70"
   height="70"
   viewBox="0 0 70 70"
   enable-background="new 0 0 100 100"
   xml:space="preserve"
   inkscape:version="0.48.5 r10040"
   sodipodi:docname="cloud_lightning_sun.svg"><metadata
   id="metadata3349"><rdf:RDF><cc:Work
       rdf:about=""><dc:format>image/svg+xml</dc:format><dc:type
         rdf:resource="http://purl.org/dc/dcmitype/StillImage" /></cc:Work></rdf:RDF></metadata><defs
   id="defs3347" /><sodipodi:namedview
   pagecolor="#ffffff"
   bordercolor="#666666"
   borderopacity="1"
   objecttolerance="10"
   gridtolerance="10"
   guidetolerance="10"
   inkscape:pageopacity="0"
   inkscape:pageshadow="2"
   inkscape:window-width="1600"
   inkscape:window-height="1138"
   id="namedview3345"
   showgrid="false"
   inkscape:zoom="9.44"
   inkscape:cx="29.591843"
   inkscape:cy="43.216448"
   inkscape:window-x="1594"
   inkscape:window-y="-6"
   inkscape:window-maximized="1"
   inkscape:current-layer="Layer_1" />
<path
   id="path3343"
   style="fill-rule:evenodd"
   d="m 28,38.9985 9.999,0 -5.999,10 6.999,0 -12.998,15.998 3.6,-11.998 -6.6,0 z m 7.668492,-19.691915 c -2.212,0 -1.884492,2.592915 -3.331492,4.045915 2.34,1.435 4.285,3.451 5.629,5.853 0.664,-0.113 1.337,-0.205 2.033,-0.205 2.125,0 4.118,0.559 5.85,1.527 l 0,0 c 0.096,-0.494 1.208322,-0.686203 1.208322,-1.209203 0,-4.418 -6.97083,-10.011712 -11.38883,-10.011712 z M 49.192,33.2945 l 0,0 c 1.342,1.6 2.271,3.555 2.633,5.704 l -0.008,0 c 0.109,0.652 0.18,1.318 0.18,2 0,6.627 -5.372,12 -11.998,12 -0.28,0 -0.649,0 -1.062,0 l 3.584,-4.412 c 3.181,-1.057 5.478,-4.053 5.478,-7.588 0,-0.691 -0.098,-1.359 -0.263,-2 l 0,0 c -0.889,-3.448 -4.011,-5.999 -7.736,-5.999 -1.601,0 -3.083,0.48 -4.334,1.291 -1.231,-5.316 -5.973,-9.291 -11.664,-9.291 -6.627,0 -11.999,5.373 -11.999,12 0,0.682 0.07,1.348 0.181,1.999 l -0.014,0 c 0.764,4.549 4.088,8.223 8.438,9.506 l -1.35,3.777 c -5.903,-1.83 -10.33,-6.99 -11.116,-13.283 l 0,0 c -0.082,-0.657 -0.138,-1.321 -0.138,-1.999 0,-8.836 7.162,-15.999 15.998,-15.999 1.572,0 3.089,0.232 4.523,0.655 2.195,-2.828 6.69494,-4.068844 10.534322,-3.70061 6.627,0.635593 4.371882,3.887949 8.079509,7.442915 -0.001,1.516 2.566169,6.560695 2.053169,7.896695 z"
   inkscape:connector-curvature="0"
   sodipodi:nodetypes="ccccccccsccsccssccccssccsccscssccccccsscscc" />
<path
   id="path8919"
   d="m 23.845002,17.690291 -2.827,-2.826999 c -0.781,-0.781 -0.781,-2.048 0,-2.828 0.78,-0.781 2.047,-0.781 2.827,0 l 2.828,2.828 c 0.781,0.779999 0.781,2.046999 0,2.826999 -0.78,0.781 -2.047,0.781 -2.828,0 z m 14.14,-4.685999 c -1.104,0 -1.999,-0.895 -1.999,-1.999 l 0,-3.9989991 c 0,-1.105 0.896,-2 1.999,-2 1.105,0 2,0.895 2,2 l 0,3.9989991 c 0,1.105 -0.894,1.999 -2,1.999 z m -9.470344,8.665593 c 0.987259,0.260238 3.307226,1.396384 3.808594,1.691406 1.447,-1.451 3.44425,-2.34375 5.65625,-2.34375 4.418,0 8,3.584 8,8 0,0.523 -0.06025,1.006 -0.15625,1.5 1.275604,0.726382 2.375224,1.736396 3.335937,2.78125 0.505325,-1.326166 0.81932,-2.776924 0.820313,-4.28125 0,-6.625 -5.373,-12 -12,-12 -3.841197,0 -7.268829,1.845102 -9.464844,4.652344 z m 23.611344,-3.979594 c -0.781,0.781 -2.047,0.781 -2.828,0 -0.781,-0.78 -0.781,-2.047 0,-2.826999 l 2.828,-2.828 c 0.781,-0.781 2.047,-0.781 2.828,0 0.781,0.78 0.781,2.047 0,2.828 z m 7.857,13.312 -4,0 c -1.104,0 -2,-0.895 -2,-2 0,-1.104 0.896,-1.998 2,-1.998 l 4,0 c 1.104,0 2,0.895 2,1.998 0,1.105 -0.896,2 -2,2 z"
   style="fill:#ff8800;fill-opacity:1"
   inkscape:connector-curvature="0"
   sodipodi:nodetypes="ssccccssssssssccsscccsccccscccsssssss" /></svg>