<?xml version="1.0" encoding="UTF-8" standalone="no"?>
<!-- Generator: Adobe Illustrator 15.1.0, SVG Export Plug-In . SVG Version: 6.00 Build 0)  -->

<svg
   xmlns:dc="http://purl.org/dc/elements/1.1/"
   xmlns:cc="http://creativecommons.org/ns#"
   xmlns:rdf="http://www.w3.org/1999/02/22-rdf-syntax-ns#"
   xmlns:svg="http://www.w3.org/2000/svg"
   xmlns="http://www.w3.org/2000/svg"
   xmlns:sodipodi="http://sodipodi.sourceforge.net/DTD/sodipodi-0.dtd"
   xmlns:inkscape="http://www.inkscape.org/namespaces/inkscape"
   version="1.1"
   id="Layer_1"
   x="0px"
   y="0px"
   width="70"
   height="70"
   viewBox="0 0 70 70"
   enable-background="new 0 0 100 100"
   xml:space="preserve"
   inkscape:version="0.48.5 r10040"
   sodipodi:docname="moon.svg"><metadata
   id="metadata3692"><rdf:RDF><cc:Work
       rdf:about=""><dc:format>image/svg+xml</dc:format><dc:type
         rdf:resource="http://purl.org/dc/dcmitype/StillImage" /></cc:Work></rdf:RDF></metadata><defs
   id="defs3690" /><sodipodi:namedview
   pagecolor="#ffffff"
   bordercolor="#666666"
   borderopacity="1"
   objecttolerance="10"
   gridtolerance="10"
   guidetolerance="10"
   inkscape:pageopacity="0"
   inkscape:pageshadow="2"
   inkscape:window-width="1600"
   inkscape:window-height="1138"
   id="namedview3688"
   showgrid="false"
   inkscape:zoom="9.9074884"
   inkscape:cx="6.9917164"
   inkscape:cy="31.400252"
   inkscape:window-x="1594"
   inkscape:window-y="-6"
   inkscape:window-maximized="1"
   inkscape:current-layer="Layer_1" />
<path
   clip-rule="evenodd"
   d="m 35.0005,46.9985 c -6.627,0 -11.999,-5.372 -11.999,-11.998 0,-6.627 5.372,-11.999 11.999,-11.999 0.755,0 1.491,0.078 2.207,0.212 -0.132,0.576 -0.208,1.173 -0.208,1.788 0,4.418 3.582,7.999 8,7.999 0.615,0 1.212,-0.076 1.788,-0.208 0.133,0.717 0.211,1.452 0.211,2.208 0,6.626 -5.372,11.998 -11.998,11.998 z m -1.788,-19.79 c -3.556,0.813 -6.211,3.989 -6.211,7.792 0,4.417 3.581,7.999 7.999,7.999 3.802,0 6.978,-2.655 7.791,-6.211 -4.854,-0.904 -8.676,-4.726 -9.579,-9.58 z"
   id="path3686"
   inkscape:connector-curvature="0"
   style="fill-rule:evenodd" />
</svg>