<?xml version="1.0" encoding="UTF-8" standalone="no"?>
<!-- Generator: Adobe Illustrator 15.1.0, SVG Export Plug-In . SVG Version: 6.00 Build 0)  -->

<svg
   xmlns:dc="http://purl.org/dc/elements/1.1/"
   xmlns:cc="http://creativecommons.org/ns#"
   xmlns:rdf="http://www.w3.org/1999/02/22-rdf-syntax-ns#"
   xmlns:svg="http://www.w3.org/2000/svg"
   xmlns="http://www.w3.org/2000/svg"
   xmlns:sodipodi="http://sodipodi.sourceforge.net/DTD/sodipodi-0.dtd"
   xmlns:inkscape="http://www.inkscape.org/namespaces/inkscape"
   version="1.1"
   id="Layer_1"
   x="0px"
   y="0px"
   width="70"
   height="70"
   viewBox="0 0 70 69.999999"
   enable-background="new 0 0 100 100"
   xml:space="preserve"
   inkscape:version="0.48.5 r10040"
   sodipodi:docname="sun_cloud.svg"><metadata
   id="metadata8007"><rdf:RDF><cc:Work
       rdf:about=""><dc:format>image/svg+xml</dc:format><dc:type
         rdf:resource="http://purl.org/dc/dcmitype/StillImage" /><dc:title /></cc:Work></rdf:RDF></metadata><defs
   id="defs8005" /><sodipodi:namedview
   pagecolor="#ffffff"
   bordercolor="#666666"
   borderopacity="1"
   objecttolerance="10"
   gridtolerance="10"
   guidetolerance="10"
   inkscape:pageopacity="0"
   inkscape:pageshadow="2"
   inkscape:window-width="1600"
   inkscape:window-height="1138"
   id="namedview8003"
   showgrid="false"
   inkscape:zoom="13.350176"
   inkscape:cx="33.428578"
   inkscape:cy="34.058623"
   inkscape:window-x="1594"
   inkscape:window-y="-6"
   inkscape:window-maximized="1"
   inkscape:current-layer="Layer_1"
   fit-margin-top="0"
   fit-margin-left="0"
   fit-margin-right="0"
   fit-margin-bottom="0" />
<path
   id="path2991"
   style="fill:#ff8800;fill-opacity:1;fill-rule:evenodd"
   d="m 32.993493,50.997999 c 1.104,0 2,0.895001 2,1.999 v 4 c 0,1.104 -0.896,2 -2,2 -1.105,0 -2,-0.896 -2,-2 v -4 c 0,-1.103999 0.895,-1.999 2,-1.999 z m -14.141001,-4.686 c 0.781,-0.78 2.047,-0.78 2.828,0 0.781,0.781 0.781,2.048 0,2.828001 l -2.828,2.828 c -0.781,0.781 -2.047,0.781 -2.828,0 -0.780999,-0.78 -0.780999,-2.047 0,-2.828 l 2.828,-2.828001 z M 16.994492,35 c 0,1.103999 -0.896,1.999 -2,1.999 h -4 c -1.1039995,0 -1.9989995,-0.895001 -1.9989995,-1.999 0,-1.104 0.896,-2 1.9989995,-2 h 4 c 1.105,0 2,0.896 2,2 z m 1.858,-11.312001 -2.828,-2.828 c -0.781,-0.780999 -0.781,-2.047 0,-2.827999 0.781,-0.781 2.047,-0.781 2.828,0 l 2.828,2.827999 c 0.781,0.781 0.781,2.047001 0,2.828 -0.781,0.781 -2.047,0.781 -2.828,0 z m 14.141001,-4.686 c -1.105001,0 -2.000001,-0.896 -2.000001,-2 V 13.003 c 0,-1.104001 0.895,-2 2.000001,-2 1.104,0 2,0.895999 2,2 v 3.998999 c 0,1.104 -0.897,2 -2,2 z m 0,7.999 c -4.418001,0 -8.000001,3.581001 -8.000001,7.999001 0,4.417 3.583,7.999 8.000001,7.999 4.416999,0 7.997999,-3.582 7.997999,-7.999 0,-4.418 -3.579999,-7.999001 -7.997999,-7.999001 z m 0,19.997 c -6.627001,0 -12.000001,-5.372 -12.000001,-11.997999 0,-6.627001 5.372,-11.999001 12.000001,-11.999001 6.626999,0 11.997999,5.372 11.997999,11.999001 0,6.625999 -5.371,11.997999 -11.997999,11.997999 z m 14.140999,-23.31 c -0.780999,0.781 -2.049,0.781 -2.828,0 -0.781,-0.780999 -0.781,-2.047 0,-2.828 l 2.828,-2.827999 c 0.779001,-0.781 2.047,-0.781 2.828001,0 0.779,0.780999 0.779,2.047 0,2.827999 l -2.828001,2.828 z m 7.855,13.311 h -3.998 c -1.104999,0 -2,-0.895 -2,-1.999 0,-1.104 0.895001,-2 2,-2 h 3.998 c 1.105,0 2,0.896 2,2 0,1.104 -0.894,1.999 -2,1.999 z"
   inkscape:connector-curvature="0" />
<path
   id="path3"
   style="fill:#000000;fill-rule:evenodd"
   d="m 54.734953,56.272053 c 1.917793,0 3.472689,-1.554896 3.472689,-3.47182 0,-1.917792 -1.554896,-3.472689 -3.472689,-3.472689 -0.694538,0 -1.337853,0.208795 -1.880895,0.560405 -0.53436,-2.307602 -2.59323,-4.03266 -5.063614,-4.03266 -2.876255,0 -5.208166,2.33191 -5.208166,5.2086 0,2.876254 2.331911,5.208164 5.208166,5.208164 1.570088,0 5.634003,0 6.944509,0 z m -7.2339,2.507981 c -4.261279,0 -7.716122,-3.454361 -7.716122,-7.716121 0,-4.261762 3.454843,-7.716122 7.716122,-7.716122 2.895836,0 5.415947,1.597437 6.735569,3.956454 0.320259,-0.0545 0.645342,-0.09887 0.980552,-0.09887 3.196321,0 5.787334,2.591494 5.787334,5.787815 0,3.195356 -2.591012,5.78685 -5.787334,5.78685 -1.338431,0 -6.173669,0 -7.716121,0 z"
   inkscape:connector-curvature="0" /></svg>