<?xml version="1.0" encoding="UTF-8" standalone="no"?>
<!-- Generator: Adobe Illustrator 15.1.0, SVG Export Plug-In . SVG Version: 6.00 Build 0)  -->

<svg
   xmlns:dc="http://purl.org/dc/elements/1.1/"
   xmlns:cc="http://creativecommons.org/ns#"
   xmlns:rdf="http://www.w3.org/1999/02/22-rdf-syntax-ns#"
   xmlns:svg="http://www.w3.org/2000/svg"
   xmlns="http://www.w3.org/2000/svg"
   xmlns:sodipodi="http://sodipodi.sourceforge.net/DTD/sodipodi-0.dtd"
   xmlns:inkscape="http://www.inkscape.org/namespaces/inkscape"
   version="1.1"
   id="Layer_1"
   x="0px"
   y="0px"
   width="70"
   height="70"
   viewBox="0 0 70 69.999999"
   enable-background="new 0 0 100 100"
   xml:space="preserve"
   inkscape:version="0.48.5 r10040"
   sodipodi:docname="sun_cloud.svg"><metadata
   id="metadata8007"><rdf:RDF><cc:Work
       rdf:about=""><dc:format>image/svg+xml</dc:format><dc:type
         rdf:resource="http://purl.org/dc/dcmitype/StillImage" /><dc:title /></cc:Work></rdf:RDF></metadata><defs
   id="defs8005" /><sodipodi:namedview
   pagecolor="#ffffff"
   bordercolor="#666666"
   borderopacity="1"
   objecttolerance="10"
   gridtolerance="10"
   guidetolerance="10"
   inkscape:pageopacity="0"
   inkscape:pageshadow="2"
   inkscape:window-width="1600"
   inkscape:window-height="1138"
   id="namedview8003"
   showgrid="false"
   inkscape:zoom="9.44"
   inkscape:cx="36.692989"
   inkscape:cy="21.755055"
   inkscape:window-x="1594"
   inkscape:window-y="-6"
   inkscape:window-maximized="1"
   inkscape:current-layer="Layer_1"
   fit-margin-top="0"
   fit-margin-left="0"
   fit-margin-right="0"
   fit-margin-bottom="0" />
<path
   id="path2991"
   style="fill:#ff8800;fill-opacity:1;fill-rule:evenodd"
   d="m 29.046765,49.738969 c 1.104,0 2,0.895001 2,1.999 v 4 c 0,1.104 -0.896,2 -2,2 -1.105,0 -2,-0.896 -2,-2 v -4 c 0,-1.103999 0.895,-1.999 2,-1.999 z m -14.141001,-4.686 c 0.781,-0.78 2.047,-0.78 2.828,0 0.781,0.781 0.781,2.048 0,2.828001 l -2.828,2.828 c -0.781,0.781 -2.047,0.781 -2.828,0 -0.780999,-0.78 -0.780999,-2.047 0,-2.828 l 2.828,-2.828001 z m -1.858,-11.311999 c 0,1.103999 -0.896,1.999 -2,1.999 H 7.0477642 c -1.1039995,0 -1.9989995,-0.895001 -1.9989995,-1.999 0,-1.104 0.896,-2 1.9989995,-2 h 3.9999998 c 1.105,0 2,0.896 2,2 z m 1.858,-11.312001 -2.828,-2.828 c -0.781,-0.780999 -0.781,-2.047 0,-2.827999 0.781,-0.781 2.047,-0.781 2.828,0 l 2.828,2.827998 c 0.781,0.781 0.781,2.047002 0,2.828 -0.781,0.781 -2.047,0.781 -2.828,0 z m 14.141001,-4.686 c -1.105001,0 -2.000001,-0.896 -2.000001,-2 V 11.74397 c 0,-1.104001 0.895,-2.0000005 2.000001,-2.0000005 1.104,0 2,0.8959995 2,2.0000005 v 3.998999 c 0,1.104 -0.897,2 -2,2 z m 0,7.999 c -4.418001,0 -8.000001,3.581001 -8.000001,7.999001 0,4.417 3.583,7.999 8.000001,7.999 4.416999,0 7.997999,-3.582 7.997999,-7.999 0,-4.418 -3.579999,-7.999001 -7.997999,-7.999001 z m 0,19.996999 c -6.627001,0 -12.000001,-5.372 -12.000001,-11.997999 0,-6.627001 5.372,-11.999001 12.000001,-11.999001 6.626999,0 11.997999,5.372 11.997999,11.999001 0,6.625999 -5.371,11.997999 -11.997999,11.997999 z m 14.140999,-23.31 c -0.780999,0.781 -2.049,0.781 -2.828,0 -0.781,-0.780999 -0.781,-2.047 0,-2.828 l 2.828,-2.827998 c 0.779001,-0.781 2.047,-0.781 2.828001,0 0.779,0.780999 0.779,2.047 0,2.827998 l -2.828001,2.828 z m 7.855,13.311001 h -3.998 c -1.104999,0 -2,-0.895001 -2,-1.999001 0,-1.103999 0.895001,-2 2,-2 h 3.998 c 1.105,0 2,0.896001 2,2 0,1.104 -0.894,1.999001 -2,1.999001 z"
   inkscape:connector-curvature="0" />
<path
   id="path2998"
   style="fill:#000000;fill-rule:evenodd"
   d="m 44.212157,35.755452 c -6.727972,0 -12.199458,5.54888 -12.199458,12.250289 0,6.701006 5.471104,12.250289 12.199458,12.250289 l 11.335329,0 c 5.156104,0 9.403749,-4.249276 9.403749,-9.403749 0,-5.154962 -4.20777,-9.45458 -9.403749,-9.45458 -0.335766,0 -0.588018,0.220062 -0.914959,0.254156 -2.151163,-3.536142 -6.009254,-5.896405 -10.42037,-5.896405 z m 0,3.7615 c -4.6785,0 -8.437959,3.809581 -8.437959,8.488789 0,4.678499 3.759459,8.488788 8.437959,8.488788 l 11.335329,0 c 3.119472,0 5.64225,-2.524191 5.64225,-5.642249 0,-3.11947 -2.522778,-5.69308 -5.64225,-5.69308 -1.129731,0 -2.217386,0.343032 -3.100695,0.914959 -0.869187,-3.753532 -4.216322,-6.557208 -8.234634,-6.557208 z"
   inkscape:connector-curvature="0" /></svg>