<?xml version="1.0" encoding="UTF-8" standalone="no"?>
<!-- Generator: Adobe Illustrator 15.1.0, SVG Export Plug-In . SVG Version: 6.00 Build 0)  -->

<svg
   xmlns:dc="http://purl.org/dc/elements/1.1/"
   xmlns:cc="http://creativecommons.org/ns#"
   xmlns:rdf="http://www.w3.org/1999/02/22-rdf-syntax-ns#"
   xmlns:svg="http://www.w3.org/2000/svg"
   xmlns="http://www.w3.org/2000/svg"
   xmlns:sodipodi="http://sodipodi.sourceforge.net/DTD/sodipodi-0.dtd"
   xmlns:inkscape="http://www.inkscape.org/namespaces/inkscape"
   version="1.1"
   id="Layer_1"
   x="0px"
   y="0px"
   width="70"
   height="70"
   viewBox="0 0 70 70.000001"
   enable-background="new 0 0 100 100"
   xml:space="preserve"
   inkscape:version="0.48.5 r10040"
   sodipodi:docname="sun_cloud_decreasing.svg"><metadata
   id="metadata8925"><rdf:RDF><cc:Work
       rdf:about=""><dc:format>image/svg+xml</dc:format><dc:type
         rdf:resource="http://purl.org/dc/dcmitype/StillImage" /><dc:title></dc:title></cc:Work></rdf:RDF></metadata><defs
   id="defs8923"><inkscape:path-effect
     effect="skeletal"
     id="path-effect8951"
     is_visible="true"
     pattern="M 0,0 0,10 10,5 z"
     copytype="single_stretched"
     prop_scale="1"
     scale_y_rel="false"
     spacing="0"
     normal_offset="0"
     tang_offset="0"
     prop_units="false"
     vertical_pattern="false"
     fuse_tolerance="0" /><inkscape:path-effect
     effect="spiro"
     id="path-effect8949"
     is_visible="true" /><inkscape:path-effect
     effect="spiro"
     id="path-effect8945"
     is_visible="true" /></defs><sodipodi:namedview
   pagecolor="#ffffff"
   bordercolor="#666666"
   borderopacity="1"
   objecttolerance="10"
   gridtolerance="10"
   guidetolerance="10"
   inkscape:pageopacity="0"
   inkscape:pageshadow="2"
   inkscape:window-width="1600"
   inkscape:window-height="1138"
   id="namedview8921"
   showgrid="false"
   inkscape:zoom="9.9103794"
   inkscape:cx="22.504929"
   inkscape:cy="33.904537"
   inkscape:window-x="1594"
   inkscape:window-y="-6"
   inkscape:window-maximized="1"
   inkscape:current-layer="Layer_1"
   fit-margin-top="0"
   fit-margin-left="0"
   fit-margin-right="0"
   fit-margin-bottom="0" />
<path
   style="fill:#000000"
   d="m 28.529499,27.6775 c -1.433,-0.422 -2.95925,-0.65625 -4.53125,-0.65625 -8.835,0 -15.9999989,7.164 -15.9999989,16 0,8.836 7.1649989,15.96875 15.9999989,15.96875 l 16,0 c 6.627,0 12,-5.34375 12,-11.96875 0,-2.935 -1.0635,-5.63275 -2.8125,-7.71875 -1.008551,-1.120982 -2.213697,-2.160158 -3.34375,-2.78125 -1.731,-0.968 -3.71875,-1.5 -5.84375,-1.5 -0.696,0 -1.36725,0.0745 -2.03125,0.1875 -1.344,-2.401 -3.285,-4.40775 -5.625,-5.84375 -1.2039,-0.652829 -2.553639,-1.395898 -3.8125,-1.6875 z m -4.53125,3.34375 c 5.691,0 10.4565,3.96525 11.6875,9.28125 1.25,-0.809 2.7125,-1.28125 4.3125,-1.28125 4.418,0 8,3.582 8,8 0,4.416 -3.582,7.96875 -8,7.96875 l -16,0 c -6.627,0 -12,-5.34175 -12,-11.96875 0,-6.627 5.373,-12 12,-12 z"
   id="path8931"
   inkscape:connector-curvature="0"
   sodipodi:nodetypes="csssssccscccscssssss" /><path
   id="path8919"
   d="m 23.863749,23.694 -2.827,-2.827 c -0.781,-0.781 -0.781,-2.048 0,-2.828 0.78,-0.781 2.047,-0.781 2.827,0 l 2.828,2.828 c 0.781,0.78 0.781,2.047 0,2.827 -0.78,0.781 -2.047,0.781 -2.828,0 z m 14.14,-4.686 c -1.104,0 -1.999,-0.895 -1.999,-1.999 l 0,-3.998999 c 0,-1.105 0.896,-2 1.999,-2 1.105,0 2,0.895 2,2 l 0,3.998999 c 0,1.105 -0.894,1.999 -2,1.999 z m -9.470344,8.665594 c 0.987259,0.260238 3.307226,1.396384 3.808594,1.691406 1.447,-1.451 3.44425,-2.34375 5.65625,-2.34375 4.418,0 8,3.584 8,8 0,0.523 -0.06025,1.006 -0.15625,1.5 1.275604,0.726382 2.375224,1.736396 3.335937,2.78125 0.505325,-1.326166 0.81932,-2.776924 0.820313,-4.28125 0,-6.625 -5.373,-12 -12,-12 -3.841197,0 -7.268829,1.845102 -9.464844,4.652344 z M 52.144749,23.694 c -0.781,0.781 -2.047,0.781 -2.828,0 -0.781,-0.78 -0.781,-2.047 0,-2.827 l 2.828,-2.828 c 0.781,-0.781 2.047,-0.781 2.828,0 0.781,0.78 0.781,2.047 0,2.828 z m 7.857001,13.312 -4.000001,0 c -1.104,0 -2,-0.895 -2,-2 0,-1.104 0.896,-1.998 2,-1.998 l 4.000001,0 c 1.104,0 2,0.895 2,1.998 0,1.105 -0.896,2 -2,2 z"
   style="fill:#ff8800;fill-opacity:1"
   inkscape:connector-curvature="0"
   sodipodi:nodetypes="ssccccssssssssccsscccsccccscccsssssss" />
<path
   style="fill:#000000;fill-opacity:1;fill-rule:evenodd"
   d="m 25.28792,36.067775 c -0.296096,0.07181 -0.565146,0.272837 -0.803848,0.511539 -0.636545,0.636545 -0.853048,1.44888 0.328847,2.630774 l 1.534618,1.736428 -5.590396,0 c -2.367137,0 -2.923082,0.826386 -2.923082,2.100119 0,1.273739 0.558182,2.028183 2.923082,2.049666 l 5.553858,0 -1.49808,1.750341 c -1.086841,1.269854 -0.965392,1.957692 -0.328847,2.594236 0.636541,0.63654 1.447811,0.890656 2.630774,-0.292308 l 4.165393,-4.165393 c 0.04792,-0.02731 0.06619,-0.07986 0.109616,-0.109616 0.396824,-0.271877 0.628932,-0.63099 0.730771,-1.059617 0.0364,-0.101829 0.02434,-0.197623 0.03654,-0.292308 0.0125,-0.09707 0.04658,-0.201996 0.03654,-0.292309 0.0025,-0.05969 0,-0.121815 0,-0.182692 0,-0.07305 0.0036,-0.147915 0,-0.219232 0.02528,-0.201262 -0.0138,-0.420466 -0.109616,-0.657693 -0.01892,-0.06142 -0.04868,-0.124127 -0.07308,-0.182693 -0.03374,-0.06359 -0.06597,-0.15277 -0.109616,-0.219231 -0.04021,-0.0689 -0.09548,-0.119367 -0.146154,-0.182693 -0.03349,-0.04331 -0.07188,-0.10163 -0.109615,-0.146154 -0.01158,-0.01146 -0.02446,-0.02533 -0.03654,-0.03654 -0.07192,-0.08284 -0.132043,-0.168582 -0.219231,-0.25577 L 27.114846,36.871622 C 26.375495,36.132269 25.781414,35.94809 25.28792,36.067775 z"
   id="path3960-8"
   inkscape:connector-curvature="0"
   sodipodi:nodetypes="ssscssscssscccccscccccccsss" /></svg>