<?xml version="1.0" encoding="UTF-8" standalone="no"?>
<svg
   xmlns:dc="http://purl.org/dc/elements/1.1/"
   xmlns:cc="http://creativecommons.org/ns#"
   xmlns:rdf="http://www.w3.org/1999/02/22-rdf-syntax-ns#"
   xmlns:svg="http://www.w3.org/2000/svg"
   xmlns="http://www.w3.org/2000/svg"
   xmlns:sodipodi="http://sodipodi.sourceforge.net/DTD/sodipodi-0.dtd"
   xmlns:inkscape="http://www.inkscape.org/namespaces/inkscape"
   version="1.1"
   x="0px"
   y="0px"
   viewBox="0 0 91.751 91.751"
   enable-background="new 0 0 100 100"
   xml:space="preserve"
   id="svg3371"
   inkscape:version="0.48.5 r10040"
   width="100%"
   height="100%"
   sodipodi:docname="noun_629767_cc.svg"><metadata
     id="metadata3387"><rdf:RDF><cc:Work
         rdf:about=""><dc:format>image/svg+xml</dc:format><dc:type
           rdf:resource="http://purl.org/dc/dcmitype/StillImage" /><dc:title></dc:title></cc:Work></rdf:RDF></metadata><defs
     id="defs3385" /><sodipodi:namedview
     pagecolor="#ffffff"
     bordercolor="#666666"
     borderopacity="1"
     objecttolerance="10"
     gridtolerance="10"
     guidetolerance="10"
     inkscape:pageopacity="0"
     inkscape:pageshadow="2"
     inkscape:window-width="1920"
     inkscape:window-height="1017"
     id="namedview3383"
     showgrid="false"
     fit-margin-top="1"
     fit-margin-left="1"
     fit-margin-right="1"
     fit-margin-bottom="1"
     inkscape:zoom="5.688"
     inkscape:cx="24.866358"
     inkscape:cy="58.3755"
     inkscape:window-x="-8"
     inkscape:window-y="-8"
     inkscape:window-maximized="1"
     inkscape:current-layer="svg3371" /><g
     id="g3373"
     transform="translate(-4.123,-4.125)"><path
       d="m 46.117,34.425 c -0.291,0.502 -0.937,0.674 -1.44,0.386 l -2.896,-1.671 1.58,8.852 c 0.084,0.462 -0.133,0.902 -0.547,1.119 -0.416,0.217 -0.902,0.141 -1.233,-0.189 l -3.53,-3.533 -0.618,2.311 c -0.144,0.527 -0.657,0.857 -1.193,0.765 l -5.293,-0.897 1.628,6.076 c 0.132,0.5 -0.105,1.011 -0.576,1.227 l -2.091,0.969 9.928,8.716 c 0.303,0.266 0.392,0.683 0.228,1.05 l -1.196,2.643 c 3.49,-0.419 6.98,-0.64 10.474,-0.662 v 10.481 h 1.287 V 61.584 c 3.491,0.025 6.982,0.246 10.475,0.662 l -1.415,-2.349 c -0.226,-0.376 -0.156,-0.851 0.172,-1.14 L 70.092,49.668 68,48.702 c -0.47,-0.217 -0.71,-0.728 -0.575,-1.229 l 1.627,-6.075 -5.294,0.897 c -0.534,0.09 -1.05,-0.24 -1.188,-0.766 l -0.618,-2.314 -3.802,3.804 c -0.327,0.325 -0.802,0.403 -1.216,0.196 -0.417,-0.207 -0.636,-0.636 -0.57,-1.091 l 1.331,-9.202 -2.801,1.617 c -0.498,0.291 -1.149,0.117 -1.44,-0.384 l -3.591,-6.224 -3.746,6.494 z"
       id="path3375"
       inkscape:connector-curvature="0" /><path
       d="m 49.997,5.125 c -10.136,0 -19.497,3.383 -27.019,9.073 v -0.105 c -4.277,3.236 -7.935,7.243 -10.798,11.796 -0.256,0.401 -0.512,0.802 -0.755,1.212 -0.013,0.024 -0.027,0.048 -0.041,0.072 -3.971,6.692 -6.261,14.496 -6.261,22.826 0,11.986 4.666,23.253 13.142,31.731 8.474,8.477 19.743,13.146 31.732,13.146 11.988,0 23.258,-4.669 31.731,-13.146 C 90.205,73.259 94.874,61.989 94.874,49.999 94.869,25.254 74.737,5.125 49.997,5.125 z m 26.16,79.424 c -7.49,5.698 -16.585,8.79 -26.16,8.79 -9.946,0 -19.373,-3.335 -27.019,-9.458 v -67.73 c 7.417,-5.93 16.806,-9.491 27.019,-9.491 9.819,0 18.884,3.29 26.16,8.816 v 69.073 z"
       id="path3377"
       inkscape:connector-curvature="0" /></g></svg>