<?xml version="1.0" encoding="UTF-8" standalone="no"?>
<svg
   xmlns:dc="http://purl.org/dc/elements/1.1/"
   xmlns:cc="http://creativecommons.org/ns#"
   xmlns:rdf="http://www.w3.org/1999/02/22-rdf-syntax-ns#"
   xmlns:svg="http://www.w3.org/2000/svg"
   xmlns="http://www.w3.org/2000/svg"
   xmlns:sodipodi="http://sodipodi.sourceforge.net/DTD/sodipodi-0.dtd"
   xmlns:inkscape="http://www.inkscape.org/namespaces/inkscape"
   version="1.1"
   x="0px"
   y="0px"
   viewBox="0 0 85 85"
   enable-background="new 0 0 100 100"
   xml:space="preserve"
   id="svg3313"
   inkscape:version="0.48.5 r10040"
   width="100%"
   height="100%"
   sodipodi:docname="noun_65438_cc.svg"><metadata
     id="metadata3331"><rdf:RDF><cc:Work
         rdf:about=""><dc:format>image/svg+xml</dc:format><dc:type
           rdf:resource="http://purl.org/dc/dcmitype/StillImage" /><dc:title></dc:title></cc:Work></rdf:RDF></metadata><defs
     id="defs3329" /><sodipodi:namedview
     pagecolor="#ffffff"
     bordercolor="#666666"
     borderopacity="1"
     objecttolerance="10"
     gridtolerance="10"
     guidetolerance="10"
     inkscape:pageopacity="0"
     inkscape:pageshadow="2"
     inkscape:window-width="1920"
     inkscape:window-height="1017"
     id="namedview3327"
     showgrid="false"
     fit-margin-top="1"
     fit-margin-left="1"
     fit-margin-right="1"
     fit-margin-bottom="1"
     inkscape:zoom="5.688"
     inkscape:cx="21.990858"
     inkscape:cy="13.2"
     inkscape:window-x="-8"
     inkscape:window-y="-8"
     inkscape:window-maximized="1"
     inkscape:current-layer="svg3313" /><g
     id="g3315"
     transform="translate(-6.9024297,-5.55)"><path
       d="M 27,38.8 C 25.2,38 23.3,37.5 21.2,37.5 14,37.5 8,43.4 8,50.7 8,58 19.2,71.5 21.3,71.5 22.8,71.5 29.1,64.4 32.4,57.8 29.6,53 26.8,47.1 26.8,42.2 26.8,41 26.9,39.9 27,38.8 z m 0,11.4 c 0,3.2 -2.5,5.7 -5.7,5.7 -3.1,0 -5.7,-2.5 -5.7,-5.7 0,-3.1 2.5,-5.7 5.7,-5.7 3.1,0 5.7,2.6 5.7,5.7 z"
       id="path3317"
       inkscape:connector-curvature="0" /><path
       d="m 77.7,37.5 c -2.1,0 -4,0.5 -5.8,1.3 0.2,1.1 0.2,2.2 0.2,3.3 0,4.9 -2.7,10.8 -5.6,15.6 3.3,6.7 9.6,13.7 11.1,13.7 2,0 13.2,-13.4 13.2,-20.7 C 91,43.4 85,37.5 77.7,37.5 z m 0,18.4 c -3.1,0 -5.7,-2.5 -5.7,-5.7 0,-3.1 2.5,-5.7 5.7,-5.7 3.1,0 5.7,2.5 5.7,5.7 0,3.2 -2.5,5.7 -5.7,5.7 z"
       id="path3319"
       inkscape:connector-curvature="0" /><path
       d="M 70.1,40 C 69,29.6 60.2,21.4 49.5,21.4 38.8,21.4 30,29.6 28.9,40 c -0.1,0.7 -0.1,1.4 -0.1,2.2 0,3.8 1.9,8.6 4.6,13.4 5.4,9.7 14,19.1 16.1,19.1 2.1,0 10.7,-9.4 16.1,-19.1 2.7,-4.8 4.6,-9.6 4.6,-13.4 0,-0.8 0,-1.5 -0.1,-2.2 z M 49.5,50.3 c -4.9,0 -8.9,-4 -8.9,-8.9 0,-4.9 4,-8.9 8.9,-8.9 4.9,0 8.9,4 8.9,8.9 0,4.9 -4,8.9 -8.9,8.9 z"
       id="path3321"
       inkscape:connector-curvature="0" /></g></svg>