<?xml version="1.0" encoding="UTF-8" standalone="no"?>
<svg
   xmlns:dc="http://purl.org/dc/elements/1.1/"
   xmlns:cc="http://creativecommons.org/ns#"
   xmlns:rdf="http://www.w3.org/1999/02/22-rdf-syntax-ns#"
   xmlns:svg="http://www.w3.org/2000/svg"
   xmlns="http://www.w3.org/2000/svg"
   xmlns:sodipodi="http://sodipodi.sourceforge.net/DTD/sodipodi-0.dtd"
   xmlns:inkscape="http://www.inkscape.org/namespaces/inkscape"
   version="1.1"
   x="0px"
   y="0px"
   viewBox="0 0 83 83"
   enable-background="new 0 0 100 100"
   xml:space="preserve"
   id="svg3343"
   inkscape:version="0.48.5 r10040"
   width="100%"
   height="100%"
   sodipodi:docname="noun_64503.svg"><metadata
     id="metadata3351"><rdf:RDF><cc:Work
         rdf:about=""><dc:format>image/svg+xml</dc:format><dc:type
           rdf:resource="http://purl.org/dc/dcmitype/StillImage" /><dc:title></dc:title></cc:Work></rdf:RDF></metadata><defs
     id="defs3349" /><sodipodi:namedview
     pagecolor="#ffffff"
     bordercolor="#666666"
     borderopacity="1"
     objecttolerance="10"
     gridtolerance="10"
     guidetolerance="10"
     inkscape:pageopacity="0"
     inkscape:pageshadow="2"
     inkscape:window-width="1920"
     inkscape:window-height="1017"
     id="namedview3347"
     showgrid="false"
     fit-margin-top="1"
     fit-margin-left="1"
     fit-margin-right="1"
     fit-margin-bottom="1"
     inkscape:zoom="7.11"
     inkscape:cx="10.492686"
     inkscape:cy="41.5"
     inkscape:window-x="-8"
     inkscape:window-y="-8"
     inkscape:window-maximized="1"
     inkscape:current-layer="svg3343" /><path
     d="M 50.9,60.2 C 58.6,51.1 67.8,36.7 67.8,27.3 67.8,12.8 56,1 41.5,1 27,1 15.2,12.8 15.2,27.3 c 0,9.4 9.3,23.8 16.9,32.9 C 22.2,61.8 15.2,65.9 15.2,70.7 15.2,76.9 27,82 41.5,82 56,82 67.8,76.9 67.8,70.7 67.8,66 60.8,61.9 50.9,60.2 z M 41.5,15 c 6.3,0 11.3,5.1 11.3,11.3 0,6.2 -5,11.4 -11.3,11.4 -6.3,0 -11.3,-5.1 -11.3,-11.3 0,-6.2 5,-11.4 11.3,-11.4 z m 0,61.4 c -11.2,0 -20.3,-3.8 -20.3,-8.5 0,-3.3 4.5,-6.1 11,-7.6 4.2,4.9 7.9,8.3 9.3,8.3 1.4,0 5.1,-3.3 9.3,-8.3 6.5,1.4 11,4.3 11,7.6 0,4.7 -9.1,8.5 -20.3,8.5 z"
     id="path3345"
     inkscape:connector-curvature="0" /></svg>