<?xml version="1.0" encoding="UTF-8" standalone="no"?>
<!-- Created with Inkscape (http://www.inkscape.org/) -->

<svg
   xmlns:dc="http://purl.org/dc/elements/1.1/"
   xmlns:cc="http://creativecommons.org/ns#"
   xmlns:rdf="http://www.w3.org/1999/02/22-rdf-syntax-ns#"
   xmlns:svg="http://www.w3.org/2000/svg"
   xmlns="http://www.w3.org/2000/svg"
   xmlns:sodipodi="http://sodipodi.sourceforge.net/DTD/sodipodi-0.dtd"
   xmlns:inkscape="http://www.inkscape.org/namespaces/inkscape"
   width="99.267387"
   height="99.26445"
   id="svg5374"
   version="1.1"
   inkscape:version="0.48.5 r10040"
   sodipodi:docname="search.svg">
  <defs
     id="defs5376" />
  <sodipodi:namedview
     id="base"
     pagecolor="#ffffff"
     bordercolor="#666666"
     borderopacity="1.0"
     inkscape:pageopacity="0.0"
     inkscape:pageshadow="2"
     inkscape:zoom="3.959798"
     inkscape:cx="66.037093"
     inkscape:cy="57.597982"
     inkscape:document-units="px"
     inkscape:current-layer="layer1"
     showgrid="false"
     fit-margin-top="1"
     fit-margin-left="1"
     fit-margin-right="1"
     fit-margin-bottom="1"
     inkscape:window-width="1920"
     inkscape:window-height="1017"
     inkscape:window-x="-8"
     inkscape:window-y="-8"
     inkscape:window-maximized="1" />
  <metadata
     id="metadata5379">
    <rdf:RDF>
      <cc:Work
         rdf:about="">
        <dc:format>image/svg+xml</dc:format>
        <dc:type
           rdf:resource="http://purl.org/dc/dcmitype/StillImage" />
        <dc:title></dc:title>
      </cc:Work>
    </rdf:RDF>
  </metadata>
  <g
     inkscape:label="Layer 1"
     inkscape:groupmode="layer"
     id="layer1"
     transform="translate(-142.06322,-637.1049)">
    <path
       d="m 158.3981,692.23354 c -10.70837,-10.71591 -10.70837,-28.08536 0,-38.79222 10.71586,-10.71742 28.07029,-10.70837 38.79216,0 10.70837,10.70686 10.70837,28.07028 0,38.79222 -10.72187,10.70837 -28.08379,10.70837 -38.79216,0 m 80.77246,27.93461 -18.33566,-18.34019 c -1.61289,-1.61138 -4.53418,-1.45914 -7.4615,0.0678 l -8.00113,-7.99512 c 10.42197,-13.61758 9.43917,-33.16519 -3.0192,-45.62663 -13.5649,-13.55881 -35.55444,-13.55881 -49.12079,0 -13.55874,13.56936 -13.55874,35.5589 0,49.12223 12.46295,12.45542 32.01212,13.43973 45.62815,3.01476 l 7.99812,7.99509 c -1.5239,2.93335 -1.68066,5.85161 -0.0688,7.46752 l 18.33869,18.3402 c 2.31689,2.31531 7.34693,1.04159 11.2164,-2.83989 3.87396,-3.86944 5.14618,-8.892 2.82628,-11.20581"
       style="fill:#231f20;fill-opacity:1;fill-rule:nonzero;stroke:none"
       id="path3005"
       inkscape:connector-curvature="0" />
  </g>
</svg>
