<?xml version="1.0" encoding="UTF-8" standalone="no"?>
<svg
   xmlns:dc="http://purl.org/dc/elements/1.1/"
   xmlns:cc="http://creativecommons.org/ns#"
   xmlns:rdf="http://www.w3.org/1999/02/22-rdf-syntax-ns#"
   xmlns:svg="http://www.w3.org/2000/svg"
   xmlns="http://www.w3.org/2000/svg"
   xmlns:sodipodi="http://sodipodi.sourceforge.net/DTD/sodipodi-0.dtd"
   xmlns:inkscape="http://www.inkscape.org/namespaces/inkscape"
   version="1.1"
   x="0px"
   y="0px"
   viewBox="0 0 52 52"
   enable-background="new 0 0 100 100"
   xml:space="preserve"
   id="svg3403"
   inkscape:version="0.48.5 r10040"
   width="100%"
   height="100%"
   sodipodi:docname="noun_964392_cc.svg"><metadata
     id="metadata3415"><rdf:RDF><cc:Work
         rdf:about=""><dc:format>image/svg+xml</dc:format><dc:type
           rdf:resource="http://purl.org/dc/dcmitype/StillImage" /><dc:title></dc:title></cc:Work></rdf:RDF></metadata><defs
     id="defs3413" /><sodipodi:namedview
     pagecolor="#ffffff"
     bordercolor="#666666"
     borderopacity="1"
     objecttolerance="10"
     gridtolerance="10"
     guidetolerance="10"
     inkscape:pageopacity="0"
     inkscape:pageshadow="2"
     inkscape:window-width="1920"
     inkscape:window-height="1017"
     id="namedview3411"
     showgrid="false"
     fit-margin-top="1"
     fit-margin-left="1"
     fit-margin-right="1"
     fit-margin-bottom="1"
     inkscape:zoom="5.688"
     inkscape:cx="4.9648279"
     inkscape:cy="11.918209"
     inkscape:window-x="-8"
     inkscape:window-y="-8"
     inkscape:window-maximized="1"
     inkscape:current-layer="svg3403" /><path
     d="M 47,17.287021 H 33.8 l -4,-12.1000001 c -1.369,-3.425 -6.242,-3.521 -7.6,0.1 l -4,12.1000001 H 4.9999999 c -4.02699994,0 -5.34899994,5.123 -2.3,7.3 l 10.5000001,7.4 -4.0000001,12 c -1.218,3.898 3.1620001,6.7 6.1000001,4.601 l 10.7,-7.601 10.7,7.5 c 2.921,2.086 7.459,-0.751 6.1,-4.6 l -4,-12 10.5,-7.4 c 3.049,-2.177 1.727,-7.3 -2.3,-7.3 z m -13,13.3 5,14.8 -13,-9.2 -13,9.2 5,-14.8 -13.0000001,-9.2 H 21 L 26,6.5870209 31,21.387021 h 16 l -13,9.2 z"
     id="path3405"
     inkscape:connector-curvature="0" /></svg>