<?xml version="1.0" encoding="UTF-8" standalone="no"?>
<svg
   xmlns:dc="http://purl.org/dc/elements/1.1/"
   xmlns:cc="http://creativecommons.org/ns#"
   xmlns:rdf="http://www.w3.org/1999/02/22-rdf-syntax-ns#"
   xmlns:svg="http://www.w3.org/2000/svg"
   xmlns="http://www.w3.org/2000/svg"
   xmlns:sodipodi="http://sodipodi.sourceforge.net/DTD/sodipodi-0.dtd"
   xmlns:inkscape="http://www.inkscape.org/namespaces/inkscape"
   version="1.1"
   x="0px"
   y="0px"
   viewBox="0 0 25 25"
   xml:space="preserve"
   id="svg3125"
   inkscape:version="0.48.5 r10040"
   width="100%"
   height="100%"
   sodipodi:docname="noun_605469_cc.svg"><metadata
     id="metadata3139"><rdf:RDF><cc:Work
         rdf:about=""><dc:format>image/svg+xml</dc:format><dc:type
           rdf:resource="http://purl.org/dc/dcmitype/StillImage" /><dc:title></dc:title></cc:Work></rdf:RDF></metadata><defs
     id="defs3137" /><sodipodi:namedview
     pagecolor="#ffffff"
     bordercolor="#666666"
     borderopacity="1"
     objecttolerance="10"
     gridtolerance="10"
     guidetolerance="10"
     inkscape:pageopacity="0"
     inkscape:pageshadow="2"
     inkscape:window-width="1920"
     inkscape:window-height="1017"
     id="namedview3135"
     showgrid="false"
     inkscape:zoom="23.7"
     inkscape:cx="2.9578059"
     inkscape:cy="15"
     inkscape:window-x="-8"
     inkscape:window-y="-8"
     inkscape:window-maximized="1"
     inkscape:current-layer="svg3125" /><g
     id="g3127"
     transform="translate(4.5,0.5)"><path
       d="M 8.5,24 C 9,16 16,14 16,8 16,5.791 15.104,3.791 13.656,2.343 12.209,0.896 10.209,0 8,0 5.791,0 3.791,0.896 2.344,2.343 0.896,3.791 0,5.791 0,8 c 0,6 7,8 7.5,16 h 1 z M 5,8 C 5,6.343 6.344,5 8,5 9.656,5 11,6.343 11,8 11,9.657 9.656,11 8,11 6.344,11 5,9.657 5,8 z"
       id="path3129"
       inkscape:connector-curvature="0" /></g><text
     x="0"
     y="34"
     font-size="5px"
     font-weight="bold"
     id="text3131"
     style="font-size:5px;font-weight:bold;fill:#000000;font-family:'\'Helvetica Neue\', Helvetica, Arial-Unicode, Arial, Sans-serif'">Created by Hea Poh Lin</text>
<text
     x="0"
     y="39"
     font-size="5px"
     font-weight="bold"
     id="text3133"
     style="font-size:5px;font-weight:bold;fill:#000000;font-family:'\'Helvetica Neue\', Helvetica, Arial-Unicode, Arial, Sans-serif'">from the Noun Project</text>
</svg>