<?xml version="1.0" encoding="UTF-8" standalone="no"?>
<svg
   xmlns:dc="http://purl.org/dc/elements/1.1/"
   xmlns:cc="http://creativecommons.org/ns#"
   xmlns:rdf="http://www.w3.org/1999/02/22-rdf-syntax-ns#"
   xmlns:svg="http://www.w3.org/2000/svg"
   xmlns="http://www.w3.org/2000/svg"
   xmlns:sodipodi="http://sodipodi.sourceforge.net/DTD/sodipodi-0.dtd"
   xmlns:inkscape="http://www.inkscape.org/namespaces/inkscape"
   version="1.1"
   x="0px"
   y="0px"
   viewBox="0 0 25 25"
   xml:space="preserve"
   id="svg2"
   inkscape:version="0.48.5 r10040"
   width="100%"
   height="100%"
   sodipodi:docname="noun_605471_cc.svg"><metadata
     id="metadata20"><rdf:RDF><cc:Work
         rdf:about=""><dc:format>image/svg+xml</dc:format><dc:type
           rdf:resource="http://purl.org/dc/dcmitype/StillImage" /><dc:title></dc:title></cc:Work></rdf:RDF></metadata><defs
     id="defs18" /><sodipodi:namedview
     pagecolor="#ffffff"
     bordercolor="#666666"
     borderopacity="1"
     objecttolerance="10"
     gridtolerance="10"
     guidetolerance="10"
     inkscape:pageopacity="0"
     inkscape:pageshadow="2"
     inkscape:window-width="1920"
     inkscape:window-height="1017"
     id="namedview16"
     showgrid="false"
     inkscape:zoom="11.85"
     inkscape:cx="13.802266"
     inkscape:cy="2.4911135"
     inkscape:window-x="-8"
     inkscape:window-y="-8"
     inkscape:window-maximized="1"
     inkscape:current-layer="svg2" /><g
     id="g4"
     transform="translate(0.5,0.5)"><path
       d="M 6.375,24 C 6.529,21.533 7.51,19.83 8.609,18.363 7.966,17.349 7.232,16.432 6.504,15.531 4.781,13.401 3,11.198 3,8 3,7.578 3.039,7.163 3.096,6.752 2.603,7.024 2.152,7.362 1.758,7.757 0.672,8.843 0,10.343 0,12 c 0,4.5 5.25,6 5.625,12 h 0.75 z"
       id="path6"
       inkscape:connector-curvature="0" /><path
       d="M 20.904,6.752 C 20.961,7.163 21,7.578 21,8 c 0,3.198 -1.781,5.401 -3.504,7.531 -0.729,0.901 -1.463,1.818 -2.105,2.832 1.1,1.467 2.08,3.169 2.234,5.637 h 0.75 C 18.75,18 24,16.5 24,12 24,10.343 23.328,8.843 22.242,7.757 21.848,7.362 21.396,7.024 20.904,6.752 z"
       id="path8"
       inkscape:connector-curvature="0" /><path
       d="M 12.5,24 C 13,16 20,14 20,8 20,5.791 19.104,3.791 17.656,2.343 16.209,0.896 14.209,0 12,0 9.791,0 7.791,0.896 6.344,2.343 4.895,3.791 4,5.791 4,8 c 0,6 7,8 7.5,16 h 1 z M 9,8 c 0,-1.657 1.344,-3 3,-3 1.656,0 3,1.343 3,3 0,1.657 -1.344,3 -3,3 C 10.344,11 9,9.657 9,8 z"
       id="path10"
       inkscape:connector-curvature="0" /></g></svg>