<?xml version="1.0" encoding="UTF-8" standalone="no"?>
<svg
   xmlns:dc="http://purl.org/dc/elements/1.1/"
   xmlns:cc="http://creativecommons.org/ns#"
   xmlns:rdf="http://www.w3.org/1999/02/22-rdf-syntax-ns#"
   xmlns:svg="http://www.w3.org/2000/svg"
   xmlns="http://www.w3.org/2000/svg"
   xmlns:sodipodi="http://sodipodi.sourceforge.net/DTD/sodipodi-0.dtd"
   xmlns:inkscape="http://www.inkscape.org/namespaces/inkscape"
   version="1.1"
   x="0px"
   y="0px"
   viewBox="0 0 25 25"
   xml:space="preserve"
   id="svg3197"
   inkscape:version="0.48.5 r10040"
   width="100%"
   height="100%"
   sodipodi:docname="noun_605473_cc.svg"><metadata
     id="metadata3223"><rdf:RDF><cc:Work
         rdf:about=""><dc:format>image/svg+xml</dc:format><dc:type
           rdf:resource="http://purl.org/dc/dcmitype/StillImage" /><dc:title></dc:title></cc:Work></rdf:RDF></metadata><defs
     id="defs3221" /><sodipodi:namedview
     pagecolor="#ffffff"
     bordercolor="#666666"
     borderopacity="1"
     objecttolerance="10"
     gridtolerance="10"
     guidetolerance="10"
     inkscape:pageopacity="0"
     inkscape:pageshadow="2"
     inkscape:window-width="1920"
     inkscape:window-height="1017"
     id="namedview3219"
     showgrid="false"
     inkscape:zoom="23.7"
     inkscape:cx="6.9578059"
     inkscape:cy="15"
     inkscape:window-x="-8"
     inkscape:window-y="-8"
     inkscape:window-maximized="1"
     inkscape:current-layer="svg3197" /><g
     id="g3199"
     transform="translate(0.5,0.5)"><path
       d="M 12,0 C 5.373,0 0,5.373 0,12 c 0,6.627 5.373,12 12,12 2.235,0 4.32,-0.623 6.113,-1.687 C 17.847,22.096 17.621,21.839 17.442,21.546 15.836,22.466 13.98,23 12,23 5.935,23 1,18.065 1,12 1,5.935 5.935,1 12,1 c 6.064,0 11,4.935 11,11 0,1.981 -0.533,3.835 -1.453,5.442 0.293,0.178 0.549,0.406 0.766,0.67 C 23.377,16.321 24,14.235 24,12 24,5.373 18.627,0 12,0 z"
       id="path3201"
       inkscape:connector-curvature="0" /><path
       d="m 5,12 c 0,0.061 0.008,0.121 0.01,0.182 C 5.32,12.071 5.65,12 6,12 6,8.691 8.691,6 12,6 12,5.651 12.071,5.321 12.182,5.009 12.121,5.008 12.061,5 12,5 8.134,5 5,8.134 5,12 z"
       id="path3203"
       inkscape:connector-curvature="0" /><path
       d="M 19,12 C 19,10.362 18.434,8.86 17.492,7.668 17.302,7.951 17.058,8.192 16.786,8.396 17.545,9.401 18,10.648 18,12 18,15.309 15.309,18 12,18 10.646,18 9.401,17.544 8.396,16.786 8.192,17.058 7.951,17.302 7.668,17.492 8.859,18.434 10.362,19 12,19 c 3.866,0 7,-3.134 7,-7 z"
       id="path3205"
       inkscape:connector-curvature="0" /><circle
       cx="12"
       cy="12"
       r="2"
       id="circle3207"
       sodipodi:cx="12"
       sodipodi:cy="12"
       sodipodi:rx="2"
       sodipodi:ry="2"
       d="m 14,12 c 0,1.104569 -0.895431,2 -2,2 -1.104569,0 -2,-0.895431 -2,-2 0,-1.104569 0.895431,-2 2,-2 1.104569,0 2,0.895431 2,2 z" /><circle
       cx="15"
       cy="6"
       r="2"
       id="circle3209"
       sodipodi:cx="15"
       sodipodi:cy="6"
       sodipodi:rx="2"
       sodipodi:ry="2"
       d="m 17,6 c 0,1.1045695 -0.895431,2 -2,2 -1.104569,0 -2,-0.8954305 -2,-2 0,-1.1045695 0.895431,-2 2,-2 1.104569,0 2,0.8954305 2,2 z" /><circle
       cx="6"
       cy="15"
       r="2"
       id="circle3211"
       sodipodi:cx="6"
       sodipodi:cy="15"
       sodipodi:rx="2"
       sodipodi:ry="2"
       d="m 8,15 c 0,1.104569 -0.8954305,2 -2,2 -1.1045695,0 -2,-0.895431 -2,-2 0,-1.104569 0.8954305,-2 2,-2 1.1045695,0 2,0.895431 2,2 z" /><circle
       cx="20"
       cy="20"
       r="2"
       id="circle3213"
       sodipodi:cx="20"
       sodipodi:cy="20"
       sodipodi:rx="2"
       sodipodi:ry="2"
       d="m 22,20 c 0,1.104569 -0.895431,2 -2,2 -1.104569,0 -2,-0.895431 -2,-2 0,-1.104569 0.895431,-2 2,-2 1.104569,0 2,0.895431 2,2 z" /></g><text
     x="0"
     y="34"
     font-size="5px"
     font-weight="bold"
     id="text3215"
     style="font-size:5px;font-weight:bold;fill:#000000;font-family:'\'Helvetica Neue\', Helvetica, Arial-Unicode, Arial, Sans-serif'">Created by Hea Poh Lin</text>
<text
     x="0"
     y="39"
     font-size="5px"
     font-weight="bold"
     id="text3217"
     style="font-size:5px;font-weight:bold;fill:#000000;font-family:'\'Helvetica Neue\', Helvetica, Arial-Unicode, Arial, Sans-serif'">from the Noun Project</text>
</svg>